<svg width="100" height="100" viewBox="0 0 100 100" fill="none" xmlns="http://www.w3.org/2000/svg">
<g id="laravel">
<path id="Vector" d="M98.5 22.5C98.5 22.6 98.6 22.8 98.6 22.9V44.2C98.6 44.5 98.5 44.7 98.4 45C98.3 45.2 98.1 45.4 97.8 45.6L79.9 55.9V76.3C79.9 76.9 79.6 77.4 79.1 77.6L41.7 99.2C41.6 99.2 41.5 99.3 41.4 99.3H41.3C41 99.4 40.8 99.4 40.5 99.3C40.5 99.3 40.4 99.3 40.4 99.2C40.3 99.2 40.2 99.1 40.1 99.1L2.8 77.7C2.6 77.6 2.4 77.4 2.2 77.1C2.1 76.9 2 76.6 2 76.3V12.3C2 12.2 2 12 2.1 11.9C2.1 11.9 2.1 11.8 2.2 11.8C2.2 11.7 2.3 11.6 2.3 11.6C2.3 11.5 2.4 11.5 2.4 11.5C2.4 11.4 2.5 11.4 2.5 11.3C2.5 11.3 2.6 11.2 2.7 11.2C2.8 11.2 2.8 11.1 2.9 11.1L21.5 0.2C21.7 0.1 22 0 22.2 0C22.5 0 22.7 0.1 23 0.2L41.7 11C41.8 11 41.8 11.1 41.9 11.1C42 11.1 42 11.2 42.1 11.2C42.2 11.3 42.2 11.3 42.2 11.4L42.3 11.5C42.3 11.6 42.4 11.7 42.4 11.7C42.4 11.7 42.4 11.8 42.5 11.8C42.5 11.9 42.6 12.1 42.6 12.2V52.2L58.2 43.2V22.9C58.2 22.8 58.2 22.6 58.3 22.5C58.3 22.5 58.3 22.4 58.4 22.4C58.4 22.3 58.5 22.2 58.5 22.2C58.5 22.1 58.6 22.1 58.6 22.1C58.6 22 58.7 22 58.7 21.9C58.7 21.9 58.8 21.8 58.9 21.8C59 21.8 59 21.7 59.1 21.7L77.8 10.9C78 10.8 78.3 10.7 78.6 10.7C78.9 10.7 79.1 10.8 79.4 10.9L98.1 21.7C98.2 21.7 98.2 21.8 98.3 21.8L98.4 21.9C98.5 22 98.5 22 98.5 22.1L98.6 22.2C98.6 22.3 98.7 22.4 98.7 22.4C98.5 22.4 98.5 22.4 98.5 22.5ZM95.4 43.3V25.6L88.9 29.4L79.9 34.6V52.3L95.4 43.3ZM76.7 75.4V57.7L67.8 62.8L42.5 77.2V95.1L76.7 75.4ZM5.1 15V75.4L39.4 95.1V77.2L21.5 67.1C21.4 67.1 21.4 67 21.3 67L21.2 66.9C21.1 66.9 21.1 66.8 21.1 66.7C21.1 66.6 21 66.6 21 66.5C21 66.4 20.9 66.4 20.9 66.3C20.9 66.2 20.8 66.2 20.8 66.1C20.8 66 20.8 65.9 20.8 65.9C20.8 65.8 20.8 65.8 20.8 65.7V24L11.8 18.8L5.1 15ZM22.2 3.4L6.6 12.4L22.2 21.4L37.8 12.4L22.2 3.4ZM30.3 59.3L39.3 54.1V15L32.8 18.8L23.8 24V63L30.3 59.3ZM78.3 13.9L62.7 22.9L78.3 31.9L93.9 22.9L78.3 13.9ZM76.7 34.6L67.7 29.4L61.2 25.6V43.3L70.2 48.5L76.7 52.3V34.6ZM40.9 74.5L63.7 61.5L75.2 55L59.6 46L41.7 56.3L25.4 65.7L40.9 74.5Z" fill="#6B6B6B"/>
</g>
</svg>
