<svg width="100" height="100" viewBox="0 0 100 100" fill="none" xmlns="http://www.w3.org/2000/svg">
<g id="prisma" clip-path="url(#clip0_790_10355)">
<path id="Vector" fill-rule="evenodd" clip-rule="evenodd" d="M9.80005 68.6001C8.80005 67.0001 8.80005 65.0001 9.80005 63.3001L47.2001 2.30007C49.3 -1.09993 54.3 -0.799934 56 2.80007L90.1 77.0001C91.4 79.7001 89.9 83.0001 87 83.9001L33.8 99.8001C31.7 100.4 29.4001 99.6001 28.2001 97.7001L9.80005 68.6001ZM51.4001 20.2001C51.8001 18.4001 54.2001 18.1001 54.9001 19.8001L78.5 74.3001C78.9 75.3001 78.4 76.5001 77.3 76.8001L40.6 87.8001C39.3 88.2001 38 87.0001 38.2001 85.6001L51.4001 20.2001Z" fill="#363636"/>
</g>
<defs>
<clipPath id="clip0_790_10355">
<rect width="100" height="100" fill="white"/>
</clipPath>
</defs>
</svg>
