<svg width="100" height="100" viewBox="0 0 100 100" fill="none" xmlns="http://www.w3.org/2000/svg">
<g id="resend">
<path id="Vector" d="M0 60.5999H4.4V53.6999H8.1L11.6 60.5999H16.5L12.4 52.5999C14.6 51.5999 15.9 49.3999 15.9 46.7999C15.9 42.5999 12.9 39.8999 8.3 39.8999H0V60.5999ZM8 43.6999C10.1 43.6999 11.4 44.8999 11.4 46.8999C11.4 48.7999 10.1 50.0999 8 50.0999H4.4V43.7999H8V43.6999ZM25.3 60.7999C29.3 60.7999 32 58.3999 32.4 55.4999H28.3C27.9 56.8999 26.8 57.6999 25.1 57.6999C23 57.6999 21.6 56.3999 21.5 54.2999V53.9999H32.5C32.6 53.4999 32.6 52.9999 32.6 52.5999C32.5 48.1999 29.5 45.2999 24.9 45.2999C20.2 45.2999 17.1 48.3999 17.1 53.0999C17.2 57.7999 20.2 60.7999 25.3 60.7999ZM21.6 51.2999C21.8 49.4999 23.2 48.3999 25 48.3999C26.9 48.3999 28.2 49.3999 28.4 51.2999H21.6ZM34.1 55.5999C34.3 58.7999 37.1 60.7999 41.3 60.7999C45.4 60.7999 48.2 58.8999 48.2 55.8999C48.2 52.4999 45.3 51.6999 41.8 51.2999C39.6 50.9999 38.3 50.8999 38.3 49.7999C38.3 48.7999 39.4 48.1999 41 48.1999C42.7 48.1999 43.8 48.8999 43.9 50.0999H47.9C47.7 46.9999 44.9 45.1999 40.8 45.1999C36.9 45.1999 34.3 47.0999 34.3 50.0999C34.3 53.1999 37 53.9999 40.6 54.3999C43 54.6999 44.1 54.7999 44.1 55.9999C44.1 57.0999 43 57.5999 41.3 57.5999C39.3 57.5999 38.1 56.6999 38 55.3999H34.1V55.5999ZM57.9 60.7999C61.9 60.7999 64.6 58.3999 65 55.4999H60.9C60.5 56.8999 59.4 57.6999 57.7 57.6999C55.6 57.6999 54.2 56.3999 54.1 54.2999V53.9999H65.1C65.2 53.4999 65.2 52.9999 65.2 52.5999C65.1 48.1999 62.1 45.2999 57.5 45.2999C52.8 45.2999 49.7 48.3999 49.7 53.0999C49.8 57.7999 52.9 60.7999 57.9 60.7999ZM54.3 51.2999C54.5 49.4999 55.9 48.3999 57.7 48.3999C59.6 48.3999 60.9 49.3999 61.1 51.2999H54.3ZM76.2 45.2999C73.9 45.2999 72.5 46.1999 71.5 47.3999L71.1 45.4999H67.5V60.5999H71.7V52.8999C71.7 50.2999 72.9 48.6999 75.1 48.6999C77.2 48.6999 78.2 50.0999 78.2 52.5999V60.5999H82.4V52.1999C82.3 46.9999 79.5 45.2999 76.2 45.2999ZM95.8 47.3999C94.8 46.1999 93.3 45.2999 91.2 45.2999C87.2 45.2999 84.2 48.2999 84.2 52.9999C84.2 57.7999 87.2 60.7999 91.2 60.7999C93.4 60.7999 94.9 59.7999 95.9 58.4999L96.3 60.5999H99.9V39.9999H95.7V47.3999H95.8ZM92.2 57.3999C89.9 57.3999 88.5 55.5999 88.5 52.9999C88.5 50.3999 89.9 48.5999 92.2 48.5999C94.5 48.5999 95.9 50.3999 95.9 52.9999C95.9 55.5999 94.5 57.3999 92.2 57.3999Z" fill="black"/>
</g>
</svg>
