<svg width="430" height="932" viewBox="0 0 430 932" fill="none" xmlns="http://www.w3.org/2000/svg">
<rect width="430" height="932" fill="#FF8B3E"/>
<path d="M232.471 779.029C232.941 778.505 233.51 778.079 234.144 777.775C234.779 777.47 235.467 777.294 236.17 777.256C236.873 777.218 237.576 777.319 238.24 777.552C238.904 777.786 239.516 778.149 240.039 778.619C243.965 782.132 247.104 786.436 249.252 791.247C251.399 796.058 252.506 801.268 252.5 806.537C252.5 827.251 235.711 844.037 215 844.037V833.322C220.422 833.322 225.716 831.677 230.183 828.604C234.65 825.53 238.079 821.174 240.017 816.11C241.955 811.046 242.31 805.513 241.036 800.243C239.762 794.973 236.919 790.213 232.882 786.594C231.825 785.645 231.187 784.315 231.11 782.897C231.033 781.478 231.523 780.087 232.471 779.029Z" fill="url(#paint0_linear_14821_15549)"/>
<path d="M208.746 769.558C210.134 769.352 211.548 769.699 212.683 770.523C213.818 771.348 214.584 772.586 214.817 773.97C215.049 775.353 214.73 776.773 213.926 777.924C213.123 779.074 211.901 779.864 210.521 780.122C204.283 781.182 198.62 784.415 194.537 789.25C190.454 794.085 188.214 800.209 188.214 806.537C188.214 813.641 191.036 820.454 196.06 825.477C201.083 830.5 207.896 833.322 215 833.322V844.037C194.289 844.037 177.5 827.251 177.5 806.537C177.5 788.162 190.807 772.572 208.746 769.558Z" fill="white"/>
<path d="M274.354 400.557C272.084 397.294 269.029 395.242 265.519 394.628L265.472 394.621C263.878 394.357 262.248 394.395 260.667 394.733L260.494 394.77C253.115 396.455 246.895 404.352 245.019 414.422C243.639 421.787 244.863 429.133 248.293 434.073C250.561 437.34 253.621 439.391 257.145 440.002L257.183 440.008C258.778 440.271 260.408 440.233 261.988 439.896C269.461 438.307 275.76 430.393 277.68 420.187C279.026 412.837 277.788 405.5 274.354 400.557ZM253.26 446.753C248.446 445.095 243.895 443.526 240.332 439.727C230.496 429.208 224.556 422.858 213.043 425.306C201.529 427.753 198.674 435.971 193.951 449.586C192.237 454.512 188.71 457.801 184.975 461.287C180.692 465.282 176.266 469.409 175.351 475.875C174.96 478.219 175.021 480.616 175.532 482.937C177.608 492.707 186.907 499.038 196.255 497.051C201.078 496.025 205.856 493.263 210.912 490.339C215.774 487.528 220.8 484.622 225.468 483.63C230.137 482.638 235.896 483.251 241.462 483.846C247.257 484.452 252.721 485.037 257.558 484.009C266.893 482.025 272.798 472.462 270.722 462.693C270.235 460.365 269.307 458.152 267.987 456.173C264.52 450.633 258.795 448.661 253.26 446.753ZM182.207 421.876C186.303 425.246 190.882 426.608 195.099 425.711C195.675 425.589 196.241 425.424 196.792 425.218C205.313 422.055 208.513 410.156 204.072 398.108C202.209 393.043 199.163 388.603 195.516 385.607C191.427 382.244 186.844 380.886 182.629 381.782C182.053 381.905 181.487 382.069 180.936 382.276C172.414 385.439 169.215 397.338 173.656 409.385C175.515 414.443 178.559 418.877 182.207 421.876ZM227.855 418.615C228.443 418.579 229.027 418.5 229.603 418.377C233.823 417.48 237.449 414.375 239.82 409.63C241.93 405.407 242.897 400.121 242.547 394.736C241.706 381.929 233.943 372.36 224.87 372.931C224.283 372.967 223.699 373.047 223.123 373.169C218.91 374.07 215.275 377.175 212.907 381.91C210.794 386.131 209.817 391.426 210.179 396.816C211.021 409.623 218.784 419.191 227.855 418.615ZM178.698 456.691L178.733 456.669C181.698 454.678 183.658 451.564 184.399 447.66C185.521 441.741 183.655 434.54 179.404 428.371C173.52 419.835 164.549 415.164 157.084 416.75C155.502 417.084 153.998 417.712 152.649 418.602L152.614 418.624C149.654 420.602 147.697 423.727 146.956 427.631C145.834 433.55 147.7 440.751 151.951 446.92C157.835 455.456 166.806 460.127 174.271 458.541C175.85 458.206 177.351 457.579 178.698 456.691Z" fill="white"/>
<path fill-rule="evenodd" clip-rule="evenodd" d="M353 18H352C351.448 18 351 18.4197 351 18.9375V27.0625C351 27.5803 351.448 28 352 28H353C353.552 28 354 27.5803 354 27.0625V18.9375C354 18.4197 353.552 18 353 18ZM347 20H348C348.552 20 349 20.4298 349 20.96V27.04C349 27.5702 348.552 28 348 28H347C346.448 28 346 27.5702 346 27.04V20.96C346 20.4298 346.448 20 347 20ZM343 22H342C341.448 22 341 22.4477 341 23V27C341 27.5523 341.448 28 342 28H343C343.552 28 344 27.5523 344 27V23C344 22.4477 343.552 22 343 22ZM338 24H337C336.448 24 336 24.4477 336 25V27C336 27.5523 336.448 28 337 28H338C338.552 28 339 27.5523 339 27V25C339 24.4477 338.552 24 338 24Z" fill="white"/>
<path fill-rule="evenodd" clip-rule="evenodd" d="M366.637 19.2773C368.852 19.2774 370.984 20.1289 372.59 21.6557C372.711 21.7735 372.904 21.772 373.023 21.6523L374.179 20.4857C374.239 20.4249 374.273 20.3427 374.272 20.2571C374.272 20.1715 374.237 20.0897 374.176 20.0297C369.961 15.9901 363.311 15.9901 359.096 20.0297C359.035 20.0896 359.001 20.1715 359 20.257C358.999 20.3426 359.033 20.4249 359.093 20.4857L360.25 21.6523C360.369 21.7722 360.562 21.7737 360.683 21.6557C362.289 20.1288 364.42 19.2773 366.637 19.2773ZM366.637 23.0729C367.854 23.0728 369.028 23.5254 369.931 24.3426C370.053 24.4585 370.245 24.456 370.364 24.3369L371.519 23.1702C371.579 23.109 371.613 23.026 371.612 22.9398C371.611 22.8535 371.576 22.7712 371.514 22.7112C368.766 20.1548 364.51 20.1548 361.762 22.7112C361.699 22.7712 361.664 22.8535 361.663 22.9398C361.662 23.0261 361.696 23.1091 361.757 23.1702L362.912 24.3369C363.031 24.456 363.223 24.4585 363.345 24.3426C364.247 23.5259 365.42 23.0734 366.637 23.0729ZM368.95 25.6267C368.951 25.7132 368.917 25.7966 368.856 25.8572L366.858 27.8729C366.8 27.9321 366.72 27.9655 366.637 27.9655C366.553 27.9655 366.473 27.9321 366.415 27.8729L364.417 25.8572C364.356 25.7966 364.322 25.7131 364.323 25.6266C364.325 25.5401 364.363 25.4582 364.427 25.4002C365.703 24.3213 367.571 24.3213 368.846 25.4002C368.91 25.4583 368.948 25.5402 368.95 25.6267Z" fill="white"/>
<path opacity="0.35" d="M382.667 16.5H402.333C403.53 16.5 404.5 17.47 404.5 18.6667V26.3333C404.5 27.53 403.53 28.5 402.333 28.5H382.667C381.47 28.5 380.5 27.53 380.5 26.3333V18.6667C380.5 17.4701 381.47 16.5 382.667 16.5Z" stroke="white"/>
<path opacity="0.4" d="M405.65 21V25C406.455 24.6612 406.978 23.8731 406.978 23C406.978 22.1269 406.455 21.3388 405.65 21" fill="white"/>
<path d="M382.3 19.6663C382.3 18.93 382.897 18.333 383.633 18.333H401.167C401.903 18.333 402.5 18.93 402.5 19.6663V25.3297C402.5 26.0661 401.903 26.663 401.167 26.663H383.633C382.897 26.663 382.3 26.0661 382.3 25.3297V19.6663Z" fill="white"/>
<path d="M25.488 27L27.752 23.08C27.2133 23.1813 26.688 23.16 26.176 23.016C25.6693 22.8667 25.2133 22.624 24.808 22.288C24.4027 21.9467 24.08 21.5333 23.84 21.048C23.6 20.5627 23.48 20.0293 23.48 19.448C23.48 18.92 23.5787 18.424 23.776 17.96C23.9787 17.4907 24.256 17.08 24.608 16.728C24.96 16.3707 25.368 16.0933 25.832 15.896C26.3013 15.6933 26.8027 15.592 27.336 15.592C28.0347 15.592 28.6747 15.7653 29.256 16.112C29.8373 16.4587 30.3013 16.9253 30.648 17.512C30.9947 18.0933 31.168 18.7387 31.168 19.448C31.168 19.816 31.1227 20.152 31.032 20.456C30.9467 20.76 30.8107 21.08 30.624 21.416L27.416 27H25.488ZM27.32 21.632C27.7467 21.632 28.1253 21.5307 28.456 21.328C28.7867 21.12 29.0453 20.8507 29.232 20.52C29.424 20.184 29.52 19.824 29.52 19.44C29.52 19.024 29.4187 18.6507 29.216 18.32C29.0133 17.9893 28.744 17.728 28.408 17.536C28.0773 17.344 27.72 17.248 27.336 17.248C26.9093 17.248 26.5307 17.352 26.2 17.56C25.8693 17.768 25.608 18.04 25.416 18.376C25.224 18.7067 25.128 19.0613 25.128 19.44C25.128 19.84 25.224 20.208 25.416 20.544C25.6133 20.8747 25.8773 21.1387 26.208 21.336C26.5387 21.5333 26.9093 21.632 27.32 21.632ZM33.3526 20.752C33.1073 20.752 32.8993 20.6667 32.7286 20.496C32.5633 20.3253 32.4806 20.1173 32.4806 19.872C32.4806 19.632 32.5633 19.4267 32.7286 19.256C32.8993 19.0853 33.1073 19 33.3526 19C33.598 19 33.806 19.0853 33.9766 19.256C34.1473 19.4267 34.2326 19.632 34.2326 19.872C34.2326 20.1173 34.1473 20.3253 33.9766 20.496C33.806 20.6667 33.598 20.752 33.3526 20.752ZM33.3526 27.208C33.1073 27.208 32.8993 27.1227 32.7286 26.952C32.5633 26.7813 32.4806 26.5733 32.4806 26.328C32.4806 26.088 32.5633 25.8827 32.7286 25.712C32.8993 25.5413 33.1073 25.456 33.3526 25.456C33.598 25.456 33.806 25.5413 33.9766 25.712C34.1473 25.8827 34.2326 26.088 34.2326 26.328C34.2326 26.5733 34.1473 26.7813 33.9766 26.952C33.806 27.1227 33.598 27.208 33.3526 27.208ZM40.832 27V24.136H36.04V22.464L40.432 15.8H42.496V22.472H43.52V24.136H42.496V27H40.832ZM37.976 22.464L40.832 22.472L40.816 18.096L37.976 22.464ZM46.6541 27V17.464H45.3181L45.7741 15.8H48.3181V27H46.6541Z" fill="white"/>
<defs>
<linearGradient id="paint0_linear_14821_15549" x1="233.75" y1="777.248" x2="215" y2="833.32" gradientUnits="userSpaceOnUse">
<stop stop-color="white" stop-opacity="0"/>
<stop offset="1" stop-color="white"/>
</linearGradient>
</defs>
</svg>
