<svg width="430" height="932" viewBox="0 0 430 932" fill="none" xmlns="http://www.w3.org/2000/svg">
<g clip-path="url(#clip0_14821_15585)">
<rect width="430" height="932" fill="white"/>
<path d="M244.677 103.278C243.542 101.647 242.015 100.621 240.259 100.314L240.236 100.31C239.439 100.178 238.624 100.197 237.834 100.366L237.747 100.385C234.057 101.227 230.947 105.176 230.009 110.211C229.32 113.893 229.931 117.566 231.646 120.036C232.78 121.67 234.31 122.695 236.072 123.001L236.092 123.004C236.889 123.135 237.704 123.116 238.494 122.948C242.23 122.153 245.38 118.196 246.34 113.093C247.013 109.418 246.394 105.75 244.677 103.278ZM234.13 126.376C231.723 125.547 229.447 124.763 227.666 122.863C222.748 117.604 219.778 114.429 214.021 115.653C208.264 116.876 206.837 120.985 204.475 127.793C203.618 130.256 201.855 131.9 199.987 133.643C197.846 135.641 195.633 137.704 195.176 140.937C194.98 142.109 195.01 143.308 195.266 144.468C196.304 149.353 200.953 152.519 205.627 151.525C208.039 151.013 210.428 149.631 212.956 148.169C215.387 146.764 217.9 145.311 220.234 144.815C222.568 144.319 225.448 144.625 228.231 144.923C231.128 145.226 233.86 145.518 236.279 145.004C240.946 144.012 243.899 139.231 242.861 134.346C242.617 133.182 242.153 132.076 241.493 131.086C239.76 128.316 236.898 127.33 234.13 126.376ZM198.603 113.938C200.652 115.623 202.941 116.304 205.049 115.855C205.337 115.794 205.62 115.712 205.896 115.609C210.157 114.027 211.756 108.078 209.536 102.054C208.604 99.5212 207.081 97.3014 205.258 95.8032C203.213 94.1218 200.922 93.4429 198.814 93.8909C198.526 93.9521 198.243 94.0345 197.968 94.1375C193.707 95.7191 192.107 101.669 194.328 107.692C195.257 110.221 196.779 112.438 198.603 113.938ZM221.427 112.307C221.721 112.289 222.013 112.25 222.301 112.188C224.411 111.74 226.224 110.187 227.41 107.815C228.465 105.703 228.948 103.06 228.774 100.368C228.353 93.9644 224.471 89.18 219.935 89.4654C219.641 89.4834 219.349 89.5232 219.061 89.5843C216.955 90.035 215.137 91.5872 213.954 93.9548C212.897 96.0653 212.409 98.7125 212.59 101.408C213.01 107.811 216.892 112.596 221.427 112.307ZM196.849 131.345L196.866 131.334C198.349 130.339 199.329 128.782 199.699 126.83C200.26 123.87 199.327 120.27 197.202 117.185C194.26 112.917 189.774 110.582 186.042 111.375C185.251 111.542 184.499 111.856 183.824 112.301L183.807 112.312C182.327 113.301 181.348 114.863 180.978 116.815C180.417 119.775 181.35 123.375 183.475 126.46C186.418 130.728 190.903 133.063 194.636 132.27C195.425 132.103 196.175 131.789 196.849 131.345Z" fill="#FF8B3E"/>
<path d="M108.404 359V336.6H116.564C117.748 336.6 118.815 336.845 119.764 337.336C120.724 337.816 121.482 338.509 122.036 339.416C122.602 340.312 122.884 341.373 122.884 342.6C122.884 343.144 122.804 343.693 122.644 344.248C122.484 344.803 122.239 345.304 121.908 345.752C121.578 346.189 121.151 346.515 120.628 346.728C121.322 346.899 121.887 347.208 122.324 347.656C122.762 348.104 123.103 348.632 123.348 349.24C123.594 349.837 123.759 350.451 123.844 351.08C123.94 351.699 123.988 352.275 123.988 352.808C123.988 353.992 123.695 355.048 123.108 355.976C122.522 356.904 121.732 357.64 120.74 358.184C119.759 358.728 118.671 359 117.476 359H108.404ZM112.308 355.656H117.076C117.716 355.656 118.292 355.501 118.804 355.192C119.316 354.883 119.727 354.456 120.036 353.912C120.346 353.368 120.5 352.749 120.5 352.056C120.5 351.459 120.346 350.893 120.036 350.36C119.727 349.827 119.316 349.395 118.804 349.064C118.292 348.733 117.716 348.568 117.076 348.568H112.308V355.656ZM112.308 345.272H116.116C116.906 345.272 117.578 345.027 118.132 344.536C118.698 344.045 118.98 343.395 118.98 342.584C118.98 341.72 118.698 341.069 118.132 340.632C117.578 340.184 116.906 339.96 116.116 339.96H112.308V345.272ZM133.382 359.416C131.91 359.416 130.566 359.037 129.35 358.28C128.145 357.523 127.179 356.504 126.454 355.224C125.739 353.944 125.382 352.531 125.382 350.984C125.382 349.821 125.59 348.733 126.006 347.72C126.422 346.696 126.993 345.8 127.718 345.032C128.454 344.253 129.307 343.645 130.278 343.208C131.249 342.771 132.283 342.552 133.382 342.552C134.63 342.552 135.771 342.819 136.806 343.352C137.851 343.875 138.737 344.595 139.462 345.512C140.187 346.429 140.715 347.475 141.046 348.648C141.377 349.821 141.451 351.048 141.27 352.328H129.574C129.723 352.925 129.969 353.464 130.31 353.944C130.651 354.413 131.083 354.792 131.606 355.08C132.129 355.357 132.721 355.501 133.382 355.512C134.065 355.523 134.683 355.363 135.238 355.032C135.803 354.691 136.273 354.232 136.646 353.656L140.63 354.584C139.979 356.003 139.009 357.165 137.718 358.072C136.427 358.968 134.982 359.416 133.382 359.416ZM129.446 349.4H137.318C137.201 348.76 136.95 348.184 136.566 347.672C136.193 347.149 135.729 346.733 135.174 346.424C134.619 346.115 134.022 345.96 133.382 345.96C132.742 345.96 132.15 346.115 131.606 346.424C131.062 346.723 130.598 347.133 130.214 347.656C129.841 348.168 129.585 348.749 129.446 349.4ZM143.873 359V343H147.777V344.424C148.321 343.848 148.972 343.395 149.729 343.064C150.486 342.723 151.302 342.552 152.177 342.552C153.286 342.552 154.305 342.813 155.233 343.336C156.172 343.859 156.918 344.557 157.473 345.432C158.038 344.557 158.785 343.859 159.713 343.336C160.641 342.813 161.66 342.552 162.769 342.552C163.942 342.552 165.004 342.84 165.953 343.416C166.913 343.981 167.676 344.744 168.241 345.704C168.817 346.653 169.105 347.715 169.105 348.888V359H165.201V349.928C165.201 349.309 165.046 348.744 164.737 348.232C164.438 347.709 164.033 347.293 163.521 346.984C163.02 346.664 162.454 346.504 161.825 346.504C161.196 346.504 160.625 346.659 160.113 346.968C159.612 347.267 159.206 347.672 158.897 348.184C158.588 348.696 158.433 349.277 158.433 349.928V359H154.529V349.928C154.529 349.277 154.38 348.696 154.081 348.184C153.782 347.672 153.377 347.267 152.865 346.968C152.353 346.659 151.782 346.504 151.153 346.504C150.534 346.504 149.969 346.664 149.457 346.984C148.945 347.293 148.534 347.709 148.225 348.232C147.926 348.744 147.777 349.309 147.777 349.928V359H143.873ZM172.311 347.448H182.551V351.352H172.311V347.448ZM196.308 359H191.268L185.444 342.984H189.604L193.796 354.504L197.972 342.984H202.132L196.308 359ZM204.498 343H208.402V359H204.498V343ZM206.482 340.936C205.906 340.936 205.421 340.749 205.026 340.376C204.631 339.992 204.434 339.512 204.434 338.936C204.434 338.371 204.631 337.896 205.026 337.512C205.421 337.128 205.901 336.936 206.466 336.936C207.031 336.936 207.506 337.128 207.89 337.512C208.285 337.896 208.482 338.371 208.482 338.936C208.482 339.512 208.29 339.992 207.906 340.376C207.522 340.749 207.047 340.936 206.482 340.936ZM226.779 348.888V359H222.875V349.912C222.875 349.283 222.72 348.712 222.411 348.2C222.102 347.677 221.686 347.267 221.163 346.968C220.651 346.659 220.08 346.504 219.451 346.504C218.822 346.504 218.246 346.659 217.723 346.968C217.211 347.267 216.8 347.677 216.491 348.2C216.192 348.712 216.043 349.283 216.043 349.912V359H212.139L212.123 343H216.027L216.043 344.424C216.587 343.848 217.238 343.395 217.995 343.064C218.752 342.723 219.568 342.552 220.443 342.552C221.606 342.552 222.667 342.84 223.627 343.416C224.587 343.981 225.35 344.744 225.915 345.704C226.491 346.653 226.779 347.715 226.779 348.888ZM241.75 335H245.654V359H241.75V357C241.238 357.715 240.593 358.296 239.814 358.744C239.036 359.192 238.134 359.416 237.11 359.416C235.948 359.416 234.86 359.197 233.846 358.76C232.833 358.323 231.937 357.72 231.158 356.952C230.39 356.173 229.788 355.277 229.35 354.264C228.913 353.251 228.694 352.163 228.694 351C228.694 349.837 228.913 348.749 229.35 347.736C229.788 346.723 230.39 345.832 231.158 345.064C231.937 344.285 232.833 343.677 233.846 343.24C234.86 342.803 235.948 342.584 237.11 342.584C238.134 342.584 239.036 342.808 239.814 343.256C240.593 343.693 241.238 344.275 241.75 345V335ZM237.158 355.656C237.99 355.656 238.726 355.448 239.366 355.032C240.006 354.616 240.508 354.056 240.87 353.352C241.233 352.637 241.414 351.853 241.414 351C241.414 350.136 241.233 349.352 240.87 348.648C240.508 347.933 240.001 347.368 239.35 346.952C238.71 346.536 237.98 346.328 237.158 346.328C236.337 346.328 235.585 346.541 234.902 346.968C234.23 347.384 233.692 347.944 233.286 348.648C232.892 349.352 232.694 350.136 232.694 351C232.694 351.864 232.897 352.648 233.302 353.352C233.708 354.056 234.246 354.616 234.918 355.032C235.601 355.448 236.348 355.656 237.158 355.656ZM256.288 359.416C254.816 359.416 253.472 359.037 252.256 358.28C251.051 357.523 250.085 356.509 249.36 355.24C248.645 353.96 248.288 352.547 248.288 351C248.288 349.827 248.496 348.733 248.912 347.72C249.328 346.696 249.899 345.8 250.624 345.032C251.36 344.253 252.213 343.645 253.184 343.208C254.155 342.771 255.189 342.552 256.288 342.552C257.76 342.552 259.099 342.931 260.304 343.688C261.52 344.445 262.485 345.464 263.2 346.744C263.925 348.024 264.288 349.443 264.288 351C264.288 352.163 264.08 353.251 263.664 354.264C263.248 355.277 262.672 356.173 261.936 356.952C261.211 357.72 260.363 358.323 259.392 358.76C258.432 359.197 257.397 359.416 256.288 359.416ZM256.288 355.512C257.067 355.512 257.765 355.304 258.384 354.888C259.003 354.472 259.488 353.923 259.84 353.24C260.203 352.557 260.384 351.811 260.384 351C260.384 350.168 260.197 349.411 259.824 348.728C259.461 348.035 258.965 347.485 258.336 347.08C257.717 346.664 257.035 346.456 256.288 346.456C255.52 346.456 254.827 346.664 254.208 347.08C253.589 347.496 253.099 348.051 252.736 348.744C252.373 349.437 252.192 350.189 252.192 351C252.192 351.843 252.379 352.605 252.752 353.288C253.125 353.971 253.621 354.515 254.24 354.92C254.869 355.315 255.552 355.512 256.288 355.512ZM279.546 360.792C278.437 359.704 277.535 358.541 276.842 357.304C276.159 356.067 275.653 354.733 275.322 353.304C275.002 351.875 274.842 350.339 274.842 348.696C274.842 347.928 274.917 347.064 275.066 346.104C275.215 345.144 275.429 344.168 275.706 343.176C275.983 342.173 276.314 341.229 276.698 340.344C277.093 339.448 277.53 338.669 278.01 338.008C278.49 337.347 279.002 336.877 279.546 336.6H283.45C283.002 336.909 282.554 337.395 282.106 338.056C281.669 338.717 281.247 339.485 280.842 340.36C280.447 341.224 280.09 342.147 279.77 343.128C279.461 344.109 279.215 345.08 279.034 346.04C278.853 347 278.757 347.885 278.746 348.696C278.757 350.36 278.991 351.955 279.45 353.48C279.919 354.995 280.511 356.376 281.226 357.624C281.941 358.861 282.682 359.917 283.45 360.792H279.546ZM299.031 343H302.935V359H299.031L298.855 357.016C298.418 357.731 297.836 358.312 297.111 358.76C296.396 359.197 295.548 359.416 294.567 359.416C293.383 359.416 292.274 359.192 291.239 358.744C290.204 358.296 289.292 357.677 288.503 356.888C287.724 356.099 287.111 355.187 286.663 354.152C286.226 353.117 286.007 352.008 286.007 350.824C286.007 349.683 286.215 348.611 286.631 347.608C287.058 346.605 287.65 345.725 288.407 344.968C289.164 344.211 290.039 343.619 291.031 343.192C292.023 342.765 293.09 342.552 294.231 342.552C295.287 342.552 296.231 342.787 297.063 343.256C297.906 343.725 298.62 344.323 299.207 345.048L299.031 343ZM294.471 355.656C295.303 355.656 296.039 355.448 296.679 355.032C297.319 354.616 297.82 354.056 298.183 353.352C298.546 352.637 298.727 351.853 298.727 351C298.727 350.136 298.546 349.352 298.183 348.648C297.82 347.933 297.314 347.368 296.663 346.952C296.023 346.536 295.292 346.328 294.471 346.328C293.65 346.328 292.898 346.541 292.215 346.968C291.543 347.384 291.004 347.944 290.599 348.648C290.204 349.352 290.007 350.136 290.007 351C290.007 351.864 290.21 352.648 290.615 353.352C291.02 354.056 291.559 354.616 292.231 355.032C292.914 355.448 293.66 355.656 294.471 355.656ZM305.803 360.792C306.571 359.917 307.312 358.861 308.027 357.624C308.742 356.376 309.328 354.995 309.787 353.48C310.256 351.955 310.496 350.36 310.507 348.696C310.496 347.885 310.4 347 310.219 346.04C310.038 345.08 309.787 344.109 309.467 343.128C309.158 342.147 308.8 341.224 308.395 340.36C308 339.485 307.579 338.717 307.131 338.056C306.694 337.395 306.251 336.909 305.803 336.6H309.707C310.251 336.877 310.763 337.347 311.243 338.008C311.723 338.669 312.155 339.448 312.539 340.344C312.934 341.229 313.27 342.173 313.547 343.176C313.824 344.168 314.038 345.144 314.187 346.104C314.336 347.064 314.411 347.928 314.411 348.696C314.411 350.339 314.251 351.875 313.931 353.304C313.611 354.733 313.104 356.067 312.411 357.304C311.718 358.541 310.816 359.704 309.707 360.792H305.803ZM317.96 352.28V336.6H321.256V352.28H317.96ZM319.624 359.416C319.059 359.416 318.579 359.219 318.184 358.824C317.8 358.429 317.608 357.949 317.608 357.384C317.608 356.829 317.8 356.36 318.184 355.976C318.579 355.592 319.059 355.4 319.624 355.4C320.168 355.4 320.632 355.592 321.016 355.976C321.4 356.36 321.592 356.829 321.592 357.384C321.592 357.949 321.4 358.429 321.016 358.824C320.632 359.219 320.168 359.416 319.624 359.416Z" fill="#212121"/>
<path d="M112.43 406V393.4H119.801V394.66H113.69V398.62H118.937V399.88H113.69V406H112.43ZM127.762 397H129.022V406H127.762L127.717 404.326C127.423 404.896 127.012 405.358 126.484 405.712C125.956 406.06 125.326 406.234 124.594 406.234C123.934 406.234 123.316 406.111 122.74 405.865C122.164 405.613 121.657 405.268 121.219 404.83C120.781 404.392 120.439 403.885 120.193 403.309C119.947 402.733 119.824 402.115 119.824 401.455C119.824 400.807 119.944 400.198 120.184 399.628C120.43 399.058 120.766 398.557 121.192 398.125C121.624 397.693 122.122 397.357 122.686 397.117C123.256 396.871 123.865 396.748 124.513 396.748C125.263 396.748 125.917 396.928 126.475 397.288C127.033 397.642 127.477 398.107 127.807 398.683L127.762 397ZM124.567 405.01C125.209 405.01 125.761 404.854 126.223 404.542C126.685 404.224 127.039 403.798 127.285 403.264C127.537 402.73 127.663 402.142 127.663 401.5C127.663 400.84 127.537 400.246 127.285 399.718C127.033 399.184 126.676 398.761 126.214 398.449C125.752 398.137 125.203 397.981 124.567 397.981C123.931 397.981 123.349 398.14 122.821 398.458C122.299 398.77 121.882 399.193 121.57 399.727C121.264 400.261 121.111 400.852 121.111 401.5C121.111 402.154 121.27 402.748 121.588 403.282C121.906 403.81 122.326 404.23 122.848 404.542C123.376 404.854 123.949 405.01 124.567 405.01ZM137.274 403.741L138.399 404.353C137.991 404.923 137.472 405.379 136.842 405.721C136.218 406.063 135.54 406.234 134.808 406.234C133.98 406.234 133.224 406.021 132.54 405.595C131.862 405.169 131.319 404.599 130.911 403.885C130.509 403.165 130.308 402.37 130.308 401.5C130.308 400.84 130.425 400.225 130.659 399.655C130.893 399.079 131.214 398.575 131.622 398.143C132.036 397.705 132.516 397.363 133.062 397.117C133.608 396.871 134.19 396.748 134.808 396.748C135.54 396.748 136.218 396.919 136.842 397.261C137.472 397.603 137.991 398.062 138.399 398.638L137.274 399.241C136.962 398.845 136.587 398.542 136.149 398.332C135.711 398.116 135.264 398.008 134.808 398.008C134.202 398.008 133.653 398.17 133.161 398.494C132.669 398.812 132.279 399.235 131.991 399.763C131.709 400.291 131.568 400.87 131.568 401.5C131.568 402.13 131.712 402.709 132 403.237C132.294 403.765 132.687 404.188 133.179 404.506C133.671 404.818 134.214 404.974 134.808 404.974C135.3 404.974 135.762 404.86 136.194 404.632C136.626 404.404 136.986 404.107 137.274 403.741ZM134.826 409.303C134.448 409.405 134.088 409.357 133.746 409.159C133.404 408.961 133.182 408.673 133.08 408.295L133.863 408.088C133.905 408.25 133.998 408.373 134.142 408.457C134.292 408.541 134.451 408.562 134.619 408.52C134.787 408.472 134.913 408.373 134.997 408.223C135.087 408.079 135.108 407.923 135.06 407.755C135.018 407.587 134.922 407.461 134.772 407.377C134.628 407.299 134.469 407.278 134.295 407.314L133.44 407.431L134.547 405.505L135.249 405.91L134.871 406.567C135.099 406.627 135.3 406.744 135.474 406.918C135.654 407.092 135.777 407.302 135.843 407.548C135.945 407.932 135.897 408.295 135.699 408.637C135.501 408.979 135.21 409.201 134.826 409.303ZM147.498 397H148.758V406H147.498L147.453 404.326C147.159 404.896 146.748 405.358 146.22 405.712C145.692 406.06 145.062 406.234 144.33 406.234C143.67 406.234 143.052 406.111 142.476 405.865C141.9 405.613 141.393 405.268 140.955 404.83C140.517 404.392 140.175 403.885 139.929 403.309C139.683 402.733 139.56 402.115 139.56 401.455C139.56 400.807 139.68 400.198 139.92 399.628C140.166 399.058 140.502 398.557 140.928 398.125C141.36 397.693 141.858 397.357 142.422 397.117C142.992 396.871 143.601 396.748 144.249 396.748C144.999 396.748 145.653 396.928 146.211 397.288C146.769 397.642 147.213 398.107 147.543 398.683L147.498 397ZM144.303 405.01C144.945 405.01 145.497 404.854 145.959 404.542C146.421 404.224 146.775 403.798 147.021 403.264C147.273 402.73 147.399 402.142 147.399 401.5C147.399 400.84 147.273 400.246 147.021 399.718C146.769 399.184 146.412 398.761 145.95 398.449C145.488 398.137 144.939 397.981 144.303 397.981C143.667 397.981 143.085 398.14 142.557 398.458C142.035 398.77 141.618 399.193 141.306 399.727C141 400.261 140.847 400.852 140.847 401.5C140.847 402.154 141.006 402.748 141.324 403.282C141.642 403.81 142.062 404.23 142.584 404.542C143.112 404.854 143.685 405.01 144.303 405.01ZM155.284 406V392.5H156.544V406H155.284ZM162.801 406.234C161.973 406.234 161.217 406.021 160.533 405.595C159.855 405.169 159.312 404.599 158.904 403.885C158.502 403.165 158.301 402.37 158.301 401.5C158.301 400.84 158.418 400.225 158.652 399.655C158.886 399.079 159.207 398.575 159.615 398.143C160.029 397.705 160.509 397.363 161.055 397.117C161.601 396.871 162.183 396.748 162.801 396.748C163.629 396.748 164.382 396.961 165.06 397.387C165.744 397.813 166.287 398.386 166.689 399.106C167.097 399.826 167.301 400.624 167.301 401.5C167.301 402.154 167.184 402.766 166.95 403.336C166.716 403.906 166.392 404.41 165.978 404.848C165.57 405.28 165.093 405.619 164.547 405.865C164.007 406.111 163.425 406.234 162.801 406.234ZM162.801 404.974C163.413 404.974 163.962 404.815 164.448 404.497C164.94 404.173 165.327 403.747 165.609 403.219C165.897 402.691 166.041 402.118 166.041 401.5C166.041 400.87 165.897 400.291 165.609 399.763C165.321 399.229 164.931 398.803 164.439 398.485C163.953 398.167 163.407 398.008 162.801 398.008C162.189 398.008 161.637 398.17 161.145 398.494C160.659 398.812 160.272 399.235 159.984 399.763C159.702 400.291 159.561 400.87 159.561 401.5C159.561 402.148 159.708 402.736 160.002 403.264C160.296 403.786 160.689 404.203 161.181 404.515C161.673 404.821 162.213 404.974 162.801 404.974ZM176.092 397H177.352V406.333C177.352 406.909 177.226 407.449 176.974 407.953C176.728 408.457 176.392 408.898 175.966 409.276C175.546 409.66 175.066 409.96 174.526 410.176C173.986 410.392 173.425 410.5 172.843 410.5C172.219 410.5 171.616 410.356 171.034 410.068C170.452 409.786 169.945 409.408 169.513 408.934C169.087 408.46 168.784 407.935 168.604 407.359L169.765 406.828C169.879 407.278 170.092 407.683 170.404 408.043C170.722 408.409 171.094 408.697 171.52 408.907C171.952 409.123 172.393 409.231 172.843 409.231C173.257 409.231 173.656 409.153 174.04 408.997C174.43 408.847 174.778 408.64 175.084 408.376C175.396 408.112 175.642 407.803 175.822 407.449C176.002 407.101 176.092 406.729 176.092 406.333V404.344C175.78 404.908 175.357 405.364 174.823 405.712C174.295 406.06 173.68 406.234 172.978 406.234C172.348 406.234 171.754 406.111 171.196 405.865C170.644 405.619 170.158 405.28 169.738 404.848C169.318 404.41 168.988 403.906 168.748 403.336C168.514 402.766 168.397 402.154 168.397 401.5C168.397 400.846 168.514 400.234 168.748 399.664C168.988 399.088 169.318 398.584 169.738 398.152C170.158 397.714 170.644 397.372 171.196 397.126C171.754 396.88 172.348 396.757 172.978 396.757C173.68 396.757 174.295 396.931 174.823 397.279C175.357 397.621 175.78 398.077 176.092 398.647V397ZM172.987 405.01C173.611 405.01 174.148 404.848 174.598 404.524C175.054 404.2 175.405 403.771 175.651 403.237C175.897 402.703 176.02 402.124 176.02 401.5C176.02 400.858 175.894 400.273 175.642 399.745C175.396 399.211 175.045 398.785 174.589 398.467C174.133 398.143 173.599 397.981 172.987 397.981C172.375 397.981 171.817 398.14 171.313 398.458C170.815 398.77 170.419 399.193 170.125 399.727C169.831 400.261 169.684 400.852 169.684 401.5C169.684 402.148 169.834 402.739 170.134 403.273C170.434 403.801 170.833 404.224 171.331 404.542C171.835 404.854 172.387 405.01 172.987 405.01ZM179.632 397H180.892V406H179.632V397ZM180.271 395.425C180.067 395.425 179.893 395.359 179.749 395.227C179.611 395.089 179.542 394.918 179.542 394.714C179.542 394.51 179.611 394.342 179.749 394.21C179.893 394.072 180.067 394.003 180.271 394.003C180.469 394.003 180.637 394.072 180.775 394.21C180.919 394.342 180.991 394.51 180.991 394.714C180.991 394.918 180.922 395.089 180.784 395.227C180.646 395.359 180.475 395.425 180.271 395.425ZM191.072 400.429V406H189.812V400.681C189.812 400.189 189.692 399.742 189.452 399.34C189.212 398.938 188.891 398.617 188.489 398.377C188.087 398.137 187.64 398.017 187.148 398.017C186.662 398.017 186.215 398.137 185.807 398.377C185.405 398.617 185.084 398.938 184.844 399.34C184.604 399.742 184.484 400.189 184.484 400.681V406H183.224V397H184.484V398.242C184.802 397.786 185.216 397.423 185.726 397.153C186.236 396.883 186.791 396.748 187.391 396.748C188.069 396.748 188.687 396.913 189.245 397.243C189.803 397.573 190.247 398.017 190.577 398.575C190.907 399.133 191.072 399.751 191.072 400.429ZM201.559 406.234C200.731 406.234 199.975 406.021 199.291 405.595C198.613 405.169 198.07 404.599 197.662 403.885C197.26 403.165 197.059 402.37 197.059 401.5C197.059 400.84 197.176 400.225 197.41 399.655C197.644 399.079 197.965 398.575 198.373 398.143C198.787 397.705 199.267 397.363 199.813 397.117C200.359 396.871 200.941 396.748 201.559 396.748C202.387 396.748 203.14 396.961 203.818 397.387C204.502 397.813 205.045 398.386 205.447 399.106C205.855 399.826 206.059 400.624 206.059 401.5C206.059 402.154 205.942 402.766 205.708 403.336C205.474 403.906 205.15 404.41 204.736 404.848C204.328 405.28 203.851 405.619 203.305 405.865C202.765 406.111 202.183 406.234 201.559 406.234ZM201.559 404.974C202.171 404.974 202.72 404.815 203.206 404.497C203.698 404.173 204.085 403.747 204.367 403.219C204.655 402.691 204.799 402.118 204.799 401.5C204.799 400.87 204.655 400.291 204.367 399.763C204.079 399.229 203.689 398.803 203.197 398.485C202.711 398.167 202.165 398.008 201.559 398.008C200.947 398.008 200.395 398.17 199.903 398.494C199.417 398.812 199.03 399.235 198.742 399.763C198.46 400.291 198.319 400.87 198.319 401.5C198.319 402.148 198.466 402.736 198.76 403.264C199.054 403.786 199.447 404.203 199.939 404.515C200.431 404.821 200.971 404.974 201.559 404.974ZM207.335 402.553V397H208.595V402.301C208.595 402.793 208.715 403.24 208.955 403.642C209.195 404.044 209.516 404.365 209.918 404.605C210.326 404.845 210.773 404.965 211.259 404.965C211.751 404.965 212.195 404.845 212.591 404.605C212.993 404.365 213.314 404.044 213.554 403.642C213.794 403.24 213.914 402.793 213.914 402.301V397H215.174L215.183 406H213.923L213.914 404.74C213.596 405.196 213.182 405.559 212.672 405.829C212.168 406.099 211.616 406.234 211.016 406.234C210.338 406.234 209.72 406.069 209.162 405.739C208.604 405.409 208.16 404.965 207.83 404.407C207.5 403.849 207.335 403.231 207.335 402.553ZM228.127 403.741L229.252 404.353C228.844 404.923 228.325 405.379 227.695 405.721C227.071 406.063 226.393 406.234 225.661 406.234C224.833 406.234 224.077 406.021 223.393 405.595C222.715 405.169 222.172 404.599 221.764 403.885C221.362 403.165 221.161 402.37 221.161 401.5C221.161 400.84 221.278 400.225 221.512 399.655C221.746 399.079 222.067 398.575 222.475 398.143C222.889 397.705 223.369 397.363 223.915 397.117C224.461 396.871 225.043 396.748 225.661 396.748C226.393 396.748 227.071 396.919 227.695 397.261C228.325 397.603 228.844 398.062 229.252 398.638L228.127 399.241C227.815 398.845 227.44 398.542 227.002 398.332C226.564 398.116 226.117 398.008 225.661 398.008C225.055 398.008 224.506 398.17 224.014 398.494C223.522 398.812 223.132 399.235 222.844 399.763C222.562 400.291 222.421 400.87 222.421 401.5C222.421 402.13 222.565 402.709 222.853 403.237C223.147 403.765 223.54 404.188 224.032 404.506C224.524 404.818 225.067 404.974 225.661 404.974C226.153 404.974 226.615 404.86 227.047 404.632C227.479 404.404 227.839 404.107 228.127 403.741ZM238.351 397H239.611V406H238.351L238.306 404.326C238.012 404.896 237.601 405.358 237.073 405.712C236.545 406.06 235.915 406.234 235.183 406.234C234.523 406.234 233.905 406.111 233.329 405.865C232.753 405.613 232.246 405.268 231.808 404.83C231.37 404.392 231.028 403.885 230.782 403.309C230.536 402.733 230.413 402.115 230.413 401.455C230.413 400.807 230.533 400.198 230.773 399.628C231.019 399.058 231.355 398.557 231.781 398.125C232.213 397.693 232.711 397.357 233.275 397.117C233.845 396.871 234.454 396.748 235.102 396.748C235.852 396.748 236.506 396.928 237.064 397.288C237.622 397.642 238.066 398.107 238.396 398.683L238.351 397ZM235.156 405.01C235.798 405.01 236.35 404.854 236.812 404.542C237.274 404.224 237.628 403.798 237.874 403.264C238.126 402.73 238.252 402.142 238.252 401.5C238.252 400.84 238.126 400.246 237.874 399.718C237.622 399.184 237.265 398.761 236.803 398.449C236.341 398.137 235.792 397.981 235.156 397.981C234.52 397.981 233.938 398.14 233.41 398.458C232.888 398.77 232.471 399.193 232.159 399.727C231.853 400.261 231.7 400.852 231.7 401.5C231.7 402.154 231.859 402.748 232.177 403.282C232.495 403.81 232.915 404.23 233.437 404.542C233.965 404.854 234.538 405.01 235.156 405.01ZM248.844 392.5H250.104V406H248.844V404.317C248.532 404.893 248.103 405.358 247.557 405.712C247.017 406.06 246.375 406.234 245.631 406.234C244.977 406.234 244.365 406.111 243.795 405.865C243.225 405.619 242.721 405.28 242.283 404.848C241.851 404.41 241.512 403.906 241.266 403.336C241.02 402.766 240.897 402.154 240.897 401.5C240.897 400.846 241.02 400.234 241.266 399.664C241.512 399.088 241.851 398.584 242.283 398.152C242.721 397.714 243.225 397.372 243.795 397.126C244.365 396.88 244.977 396.757 245.631 396.757C246.375 396.757 247.017 396.934 247.557 397.288C248.103 397.636 248.532 398.095 248.844 398.665V392.5ZM245.64 405.01C246.282 405.01 246.834 404.854 247.296 404.542C247.758 404.224 248.112 403.798 248.358 403.264C248.61 402.73 248.736 402.142 248.736 401.5C248.736 400.84 248.61 400.246 248.358 399.718C248.106 399.184 247.749 398.761 247.287 398.449C246.825 398.137 246.276 397.981 245.64 397.981C245.004 397.981 244.425 398.14 243.903 398.458C243.381 398.77 242.964 399.193 242.652 399.727C242.34 400.261 242.184 400.852 242.184 401.5C242.184 402.154 242.343 402.748 242.661 403.282C242.979 403.81 243.399 404.23 243.921 404.542C244.449 404.854 245.022 405.01 245.64 405.01ZM259.792 397H261.052V406H259.792L259.747 404.326C259.453 404.896 259.042 405.358 258.514 405.712C257.986 406.06 257.356 406.234 256.624 406.234C255.964 406.234 255.346 406.111 254.77 405.865C254.194 405.613 253.687 405.268 253.249 404.83C252.811 404.392 252.469 403.885 252.223 403.309C251.977 402.733 251.854 402.115 251.854 401.455C251.854 400.807 251.974 400.198 252.214 399.628C252.46 399.058 252.796 398.557 253.222 398.125C253.654 397.693 254.152 397.357 254.716 397.117C255.286 396.871 255.895 396.748 256.543 396.748C257.293 396.748 257.947 396.928 258.505 397.288C259.063 397.642 259.507 398.107 259.837 398.683L259.792 397ZM256.597 405.01C257.239 405.01 257.791 404.854 258.253 404.542C258.715 404.224 259.069 403.798 259.315 403.264C259.567 402.73 259.693 402.142 259.693 401.5C259.693 400.84 259.567 400.246 259.315 399.718C259.063 399.184 258.706 398.761 258.244 398.449C257.782 398.137 257.233 397.981 256.597 397.981C255.961 397.981 255.379 398.14 254.851 398.458C254.329 398.77 253.912 399.193 253.6 399.727C253.294 400.261 253.141 400.852 253.141 401.5C253.141 402.154 253.3 402.748 253.618 403.282C253.936 403.81 254.356 404.23 254.878 404.542C255.406 404.854 255.979 405.01 256.597 405.01ZM265.834 406.171C265.342 406.159 264.862 406.069 264.394 405.901C263.926 405.733 263.518 405.505 263.17 405.217C262.822 404.929 262.573 404.602 262.423 404.236L263.512 403.768C263.608 404.002 263.785 404.218 264.043 404.416C264.307 404.608 264.607 404.764 264.943 404.884C265.279 404.998 265.612 405.055 265.942 405.055C266.308 405.055 266.65 404.995 266.968 404.875C267.286 404.755 267.544 404.584 267.742 404.362C267.946 404.134 268.048 403.867 268.048 403.561C268.048 403.231 267.94 402.973 267.724 402.787C267.508 402.595 267.235 402.445 266.905 402.337C266.575 402.223 266.236 402.115 265.888 402.013C265.252 401.839 264.691 401.647 264.205 401.437C263.719 401.227 263.338 400.96 263.062 400.636C262.792 400.306 262.657 399.883 262.657 399.367C262.657 398.821 262.81 398.35 263.116 397.954C263.428 397.552 263.833 397.243 264.331 397.027C264.835 396.805 265.372 396.694 265.942 396.694C266.674 396.694 267.34 396.853 267.94 397.171C268.546 397.489 268.984 397.912 269.254 398.44L268.237 399.043C268.129 398.797 267.958 398.584 267.724 398.404C267.49 398.224 267.223 398.083 266.923 397.981C266.629 397.879 266.329 397.825 266.023 397.819C265.639 397.813 265.282 397.87 264.952 397.99C264.622 398.104 264.355 398.275 264.151 398.503C263.953 398.731 263.854 399.01 263.854 399.34C263.854 399.67 263.953 399.922 264.151 400.096C264.349 400.264 264.616 400.402 264.952 400.51C265.294 400.612 265.678 400.732 266.104 400.87C266.65 401.044 267.163 401.242 267.643 401.464C268.123 401.686 268.51 401.962 268.804 402.292C269.098 402.622 269.242 403.039 269.236 403.543C269.236 404.083 269.074 404.554 268.75 404.956C268.426 405.358 268.006 405.667 267.49 405.883C266.974 406.093 266.422 406.189 265.834 406.171ZM275.587 398.26H273.436L273.427 406H272.167L272.176 398.26H270.547V397H272.176L272.167 394.174H273.427L273.436 397H275.587V398.26ZM277.393 406V397H278.653V398.242C278.971 397.786 279.385 397.423 279.895 397.153C280.405 396.883 280.96 396.748 281.56 396.748C281.908 396.748 282.244 396.793 282.568 396.883L282.055 398.134C281.803 398.056 281.557 398.017 281.317 398.017C280.831 398.017 280.384 398.137 279.976 398.377C279.574 398.617 279.253 398.938 279.013 399.34C278.773 399.742 278.653 400.189 278.653 400.681V406H277.393ZM287.389 406.234C286.561 406.234 285.805 406.021 285.121 405.595C284.443 405.169 283.9 404.599 283.492 403.885C283.09 403.165 282.889 402.37 282.889 401.5C282.889 400.84 283.006 400.225 283.24 399.655C283.474 399.079 283.795 398.575 284.203 398.143C284.617 397.705 285.097 397.363 285.643 397.117C286.189 396.871 286.771 396.748 287.389 396.748C288.055 396.748 288.667 396.88 289.225 397.144C289.789 397.408 290.272 397.777 290.674 398.251C291.082 398.725 291.388 399.28 291.592 399.916C291.802 400.552 291.889 401.239 291.853 401.977H284.221C284.293 402.547 284.473 403.057 284.761 403.507C285.055 403.957 285.427 404.314 285.877 404.578C286.333 404.836 286.837 404.968 287.389 404.974C287.989 404.974 288.529 404.818 289.009 404.506C289.495 404.194 289.885 403.765 290.179 403.219L291.457 403.516C291.097 404.314 290.554 404.968 289.828 405.478C289.102 405.982 288.289 406.234 287.389 406.234ZM284.185 400.96H290.584C290.542 400.402 290.371 399.892 290.071 399.43C289.777 398.962 289.396 398.59 288.928 398.314C288.46 398.032 287.947 397.891 287.389 397.891C286.831 397.891 286.321 398.029 285.859 398.305C285.397 398.575 285.019 398.944 284.725 399.412C284.431 399.874 284.251 400.39 284.185 400.96ZM293.684 399.97H299.444V401.23H293.684V399.97ZM304.592 406.171C304.1 406.159 303.62 406.069 303.152 405.901C302.684 405.733 302.276 405.505 301.928 405.217C301.58 404.929 301.331 404.602 301.181 404.236L302.27 403.768C302.366 404.002 302.543 404.218 302.801 404.416C303.065 404.608 303.365 404.764 303.701 404.884C304.037 404.998 304.37 405.055 304.7 405.055C305.066 405.055 305.408 404.995 305.726 404.875C306.044 404.755 306.302 404.584 306.5 404.362C306.704 404.134 306.806 403.867 306.806 403.561C306.806 403.231 306.698 402.973 306.482 402.787C306.266 402.595 305.993 402.445 305.663 402.337C305.333 402.223 304.994 402.115 304.646 402.013C304.01 401.839 303.449 401.647 302.963 401.437C302.477 401.227 302.096 400.96 301.82 400.636C301.55 400.306 301.415 399.883 301.415 399.367C301.415 398.821 301.568 398.35 301.874 397.954C302.186 397.552 302.591 397.243 303.089 397.027C303.593 396.805 304.13 396.694 304.7 396.694C305.432 396.694 306.098 396.853 306.698 397.171C307.304 397.489 307.742 397.912 308.012 398.44L306.995 399.043C306.887 398.797 306.716 398.584 306.482 398.404C306.248 398.224 305.981 398.083 305.681 397.981C305.387 397.879 305.087 397.825 304.781 397.819C304.397 397.813 304.04 397.87 303.71 397.99C303.38 398.104 303.113 398.275 302.909 398.503C302.711 398.731 302.612 399.01 302.612 399.34C302.612 399.67 302.711 399.922 302.909 400.096C303.107 400.264 303.374 400.402 303.71 400.51C304.052 400.612 304.436 400.732 304.862 400.87C305.408 401.044 305.921 401.242 306.401 401.464C306.881 401.686 307.268 401.962 307.562 402.292C307.856 402.622 308 403.039 307.994 403.543C307.994 404.083 307.832 404.554 307.508 404.956C307.184 405.358 306.764 405.667 306.248 405.883C305.732 406.093 305.18 406.189 304.592 406.171ZM313.635 406.234C312.807 406.234 312.051 406.021 311.367 405.595C310.689 405.169 310.146 404.599 309.738 403.885C309.336 403.165 309.135 402.37 309.135 401.5C309.135 400.84 309.252 400.225 309.486 399.655C309.72 399.079 310.041 398.575 310.449 398.143C310.863 397.705 311.343 397.363 311.889 397.117C312.435 396.871 313.017 396.748 313.635 396.748C314.301 396.748 314.913 396.88 315.471 397.144C316.035 397.408 316.518 397.777 316.92 398.251C317.328 398.725 317.634 399.28 317.838 399.916C318.048 400.552 318.135 401.239 318.099 401.977H310.467C310.539 402.547 310.719 403.057 311.007 403.507C311.301 403.957 311.673 404.314 312.123 404.578C312.579 404.836 313.083 404.968 313.635 404.974C314.235 404.974 314.775 404.818 315.255 404.506C315.741 404.194 316.131 403.765 316.425 403.219L317.703 403.516C317.343 404.314 316.8 404.968 316.074 405.478C315.348 405.982 314.535 406.234 313.635 406.234ZM310.431 400.96H316.83C316.788 400.402 316.617 399.892 316.317 399.43C316.023 398.962 315.642 398.59 315.174 398.314C314.706 398.032 314.193 397.891 313.635 397.891C313.077 397.891 312.567 398.029 312.105 398.305C311.643 398.575 311.265 398.944 310.971 399.412C310.677 399.874 310.497 400.39 310.431 400.96Z" fill="#616161"/>
<path d="M24 605C24 588.984 36.9837 576 53 576H377C393.016 576 406 588.984 406 605V605C406 621.016 393.016 634 377 634H53C36.9837 634 24 621.016 24 605V605Z" fill="#FF8B3E"/>
<path d="M193.093 611V599.8H200.117V601.752H195.045V604.024H199.069V605.976H195.045V609.048H200.117V611H193.093ZM209.402 605.944V611H207.45V606.456C207.45 606.141 207.373 605.856 207.218 605.6C207.063 605.339 206.855 605.133 206.594 604.984C206.338 604.829 206.053 604.752 205.738 604.752C205.423 604.752 205.135 604.829 204.874 604.984C204.618 605.133 204.413 605.339 204.258 605.6C204.109 605.856 204.034 606.141 204.034 606.456V611H202.082L202.074 603H204.026L204.034 603.712C204.306 603.424 204.631 603.197 205.01 603.032C205.389 602.861 205.797 602.776 206.234 602.776C206.815 602.776 207.346 602.92 207.826 603.208C208.306 603.491 208.687 603.872 208.97 604.352C209.258 604.827 209.402 605.357 209.402 605.944ZM215.484 604.952H213.932V611H211.98V604.952H210.796V603H211.98V600.488H213.932V603H215.484V604.952ZM217.138 611L217.13 603H219.082L219.09 603.712C219.362 603.424 219.688 603.197 220.066 603.032C220.445 602.861 220.853 602.776 221.29 602.776C221.584 602.776 221.877 602.819 222.17 602.904L221.402 604.872C221.2 604.792 220.997 604.752 220.794 604.752C220.48 604.752 220.192 604.829 219.93 604.984C219.674 605.133 219.469 605.339 219.314 605.6C219.165 605.856 219.09 606.141 219.09 606.456V611H217.138ZM228.925 603H230.877V611H228.925L228.837 610.008C228.618 610.365 228.327 610.656 227.965 610.88C227.607 611.099 227.183 611.208 226.693 611.208C226.101 611.208 225.546 611.096 225.029 610.872C224.511 610.648 224.055 610.339 223.661 609.944C223.271 609.549 222.965 609.093 222.741 608.576C222.522 608.059 222.413 607.504 222.413 606.912C222.413 606.341 222.517 605.805 222.725 605.304C222.938 604.803 223.234 604.363 223.613 603.984C223.991 603.605 224.429 603.309 224.925 603.096C225.421 602.883 225.954 602.776 226.525 602.776C227.053 602.776 227.525 602.893 227.941 603.128C228.362 603.363 228.719 603.661 229.013 604.024L228.925 603ZM226.645 609.328C227.061 609.328 227.429 609.224 227.749 609.016C228.069 608.808 228.319 608.528 228.501 608.176C228.682 607.819 228.773 607.427 228.773 607C228.773 606.568 228.682 606.176 228.501 605.824C228.319 605.467 228.066 605.184 227.741 604.976C227.421 604.768 227.055 604.664 226.645 604.664C226.234 604.664 225.858 604.771 225.517 604.984C225.181 605.192 224.911 605.472 224.709 605.824C224.511 606.176 224.413 606.568 224.413 607C224.413 607.432 224.514 607.824 224.717 608.176C224.919 608.528 225.189 608.808 225.525 609.016C225.866 609.224 226.239 609.328 226.645 609.328ZM232.679 611L232.671 603H234.623L234.631 603.712C234.903 603.424 235.228 603.197 235.607 603.032C235.986 602.861 236.394 602.776 236.831 602.776C237.124 602.776 237.418 602.819 237.711 602.904L236.943 604.872C236.74 604.792 236.538 604.752 236.335 604.752C236.02 604.752 235.732 604.829 235.471 604.984C235.215 605.133 235.01 605.339 234.855 605.6C234.706 605.856 234.631 606.141 234.631 606.456V611H232.679Z" fill="white"/>
<path d="M24 683C24 666.984 36.9837 654 53 654H377C393.016 654 406 666.984 406 683V683C406 699.016 393.016 712 377 712H53C36.9837 712 24 699.016 24 683V683Z" fill="#FDF6EE"/>
<path d="M175.394 689.208C174.637 689.208 173.925 689.059 173.258 688.76C172.591 688.456 172.005 688.037 171.498 687.504C170.997 686.971 170.602 686.355 170.314 685.656C170.031 684.952 169.89 684.2 169.89 683.4C169.89 682.595 170.031 681.843 170.314 681.144C170.602 680.44 170.997 679.824 171.498 679.296C172.005 678.763 172.591 678.347 173.258 678.048C173.925 677.744 174.637 677.592 175.394 677.592C176.301 677.592 177.135 677.803 177.898 678.224C178.661 678.64 179.293 679.197 179.794 679.896L178.05 680.832C177.735 680.443 177.343 680.131 176.874 679.896C176.41 679.661 175.917 679.544 175.394 679.544C174.903 679.544 174.442 679.645 174.01 679.848C173.578 680.045 173.199 680.323 172.874 680.68C172.549 681.032 172.295 681.443 172.114 681.912C171.933 682.376 171.842 682.872 171.842 683.4C171.842 683.933 171.933 684.432 172.114 684.896C172.301 685.36 172.557 685.771 172.882 686.128C173.207 686.48 173.583 686.757 174.01 686.96C174.442 687.157 174.903 687.256 175.394 687.256C175.927 687.256 176.423 687.139 176.882 686.904C177.346 686.664 177.735 686.349 178.05 685.96L179.794 686.904C179.293 687.597 178.661 688.155 177.898 688.576C177.135 688.997 176.301 689.208 175.394 689.208ZM187.114 681H189.066V689H187.114L187.026 688.008C186.807 688.365 186.517 688.656 186.154 688.88C185.797 689.099 185.373 689.208 184.882 689.208C184.29 689.208 183.735 689.096 183.218 688.872C182.701 688.648 182.245 688.339 181.85 687.944C181.461 687.549 181.154 687.093 180.93 686.576C180.711 686.059 180.602 685.504 180.602 684.912C180.602 684.341 180.706 683.805 180.914 683.304C181.127 682.803 181.423 682.363 181.802 681.984C182.181 681.605 182.618 681.309 183.114 681.096C183.61 680.883 184.143 680.776 184.714 680.776C185.242 680.776 185.714 680.893 186.13 681.128C186.551 681.363 186.909 681.661 187.202 682.024L187.114 681ZM184.834 687.328C185.25 687.328 185.618 687.224 185.938 687.016C186.258 686.808 186.509 686.528 186.69 686.176C186.871 685.819 186.962 685.427 186.962 685C186.962 684.568 186.871 684.176 186.69 683.824C186.509 683.467 186.255 683.184 185.93 682.976C185.61 682.768 185.245 682.664 184.834 682.664C184.423 682.664 184.047 682.771 183.706 682.984C183.37 683.192 183.101 683.472 182.898 683.824C182.701 684.176 182.602 684.568 182.602 685C182.602 685.432 182.703 685.824 182.906 686.176C183.109 686.528 183.378 686.808 183.714 687.016C184.055 687.224 184.429 687.328 184.834 687.328ZM196.752 677H198.704V689H196.752V688C196.496 688.357 196.173 688.648 195.784 688.872C195.394 689.096 194.944 689.208 194.432 689.208C193.85 689.208 193.306 689.099 192.8 688.88C192.293 688.661 191.845 688.36 191.456 687.976C191.072 687.587 190.77 687.139 190.552 686.632C190.333 686.125 190.224 685.581 190.224 685C190.224 684.419 190.333 683.875 190.552 683.368C190.77 682.861 191.072 682.416 191.456 682.032C191.845 681.643 192.293 681.339 192.8 681.12C193.306 680.901 193.85 680.792 194.432 680.792C194.944 680.792 195.394 680.904 195.784 681.128C196.173 681.347 196.496 681.637 196.752 682V677ZM194.456 687.328C194.872 687.328 195.24 687.224 195.56 687.016C195.88 686.808 196.13 686.528 196.312 686.176C196.493 685.819 196.584 685.427 196.584 685C196.584 684.568 196.493 684.176 196.312 683.824C196.13 683.467 195.877 683.184 195.552 682.976C195.232 682.768 194.866 682.664 194.456 682.664C194.045 682.664 193.669 682.771 193.328 682.984C192.992 683.192 192.722 683.472 192.52 683.824C192.322 684.176 192.224 684.568 192.224 685C192.224 685.432 192.325 685.824 192.528 686.176C192.73 686.528 193 686.808 193.336 687.016C193.677 687.224 194.05 687.328 194.456 687.328ZM206.733 681H208.685V689H206.733L206.645 688.008C206.426 688.365 206.135 688.656 205.773 688.88C205.415 689.099 204.991 689.208 204.501 689.208C203.909 689.208 203.354 689.096 202.837 688.872C202.319 688.648 201.863 688.339 201.469 687.944C201.079 687.549 200.773 687.093 200.549 686.576C200.33 686.059 200.221 685.504 200.221 684.912C200.221 684.341 200.325 683.805 200.533 683.304C200.746 682.803 201.042 682.363 201.421 681.984C201.799 681.605 202.237 681.309 202.733 681.096C203.229 680.883 203.762 680.776 204.333 680.776C204.861 680.776 205.333 680.893 205.749 681.128C206.17 681.363 206.527 681.661 206.821 682.024L206.733 681ZM204.453 687.328C204.869 687.328 205.237 687.224 205.557 687.016C205.877 686.808 206.127 686.528 206.309 686.176C206.49 685.819 206.581 685.427 206.581 685C206.581 684.568 206.49 684.176 206.309 683.824C206.127 683.467 205.874 683.184 205.549 682.976C205.229 682.768 204.863 682.664 204.453 682.664C204.042 682.664 203.666 682.771 203.325 682.984C202.989 683.192 202.719 683.472 202.517 683.824C202.319 684.176 202.221 684.568 202.221 685C202.221 685.432 202.322 685.824 202.525 686.176C202.727 686.528 202.997 686.808 203.333 687.016C203.674 687.224 204.047 687.328 204.453 687.328ZM212.839 689.144C212.423 689.117 212.02 689.035 211.631 688.896C211.247 688.752 210.905 688.557 210.607 688.312C210.308 688.067 210.079 687.773 209.919 687.432L211.567 686.728C211.631 686.835 211.735 686.949 211.879 687.072C212.023 687.189 212.193 687.288 212.391 687.368C212.593 687.448 212.815 687.488 213.055 687.488C213.257 687.488 213.449 687.461 213.631 687.408C213.817 687.349 213.967 687.261 214.079 687.144C214.196 687.027 214.255 686.875 214.255 686.688C214.255 686.491 214.185 686.339 214.047 686.232C213.913 686.12 213.743 686.037 213.535 685.984C213.332 685.925 213.135 685.872 212.943 685.824C212.436 685.723 211.964 685.565 211.527 685.352C211.095 685.139 210.745 684.864 210.479 684.528C210.217 684.187 210.087 683.776 210.087 683.296C210.087 682.768 210.225 682.312 210.503 681.928C210.785 681.544 211.151 681.248 211.599 681.04C212.052 680.832 212.54 680.728 213.063 680.728C213.697 680.728 214.279 680.861 214.807 681.128C215.34 681.389 215.761 681.76 216.071 682.24L214.527 683.152C214.452 683.024 214.348 682.907 214.215 682.8C214.081 682.688 213.929 682.597 213.759 682.528C213.588 682.453 213.409 682.411 213.223 682.4C212.983 682.389 212.764 682.411 212.567 682.464C212.369 682.517 212.209 682.608 212.087 682.736C211.969 682.864 211.911 683.035 211.911 683.248C211.911 683.451 211.991 683.603 212.151 683.704C212.311 683.8 212.503 683.875 212.727 683.928C212.956 683.981 213.175 684.04 213.383 684.104C213.852 684.259 214.292 684.448 214.703 684.672C215.119 684.896 215.452 685.171 215.703 685.496C215.953 685.821 216.073 686.211 216.063 686.664C216.063 687.181 215.908 687.635 215.599 688.024C215.289 688.408 214.889 688.701 214.399 688.904C213.913 689.107 213.393 689.187 212.839 689.144ZM221.92 682.952H220.368V689H218.416V682.952H217.232V681H218.416V678.488H220.368V681H221.92V682.952ZM223.574 689L223.566 681H225.518L225.526 681.712C225.798 681.424 226.124 681.197 226.502 681.032C226.881 680.861 227.289 680.776 227.726 680.776C228.02 680.776 228.313 680.819 228.606 680.904L227.838 682.872C227.636 682.792 227.433 682.752 227.23 682.752C226.916 682.752 226.628 682.829 226.366 682.984C226.11 683.133 225.905 683.339 225.75 683.6C225.601 683.856 225.526 684.141 225.526 684.456V689H223.574ZM232.849 689.208C232.113 689.208 231.441 689.019 230.833 688.64C230.23 688.261 229.747 687.752 229.385 687.112C229.027 686.472 228.849 685.765 228.849 684.992C228.849 684.411 228.953 683.867 229.161 683.36C229.369 682.848 229.654 682.4 230.017 682.016C230.385 681.627 230.811 681.323 231.297 681.104C231.782 680.885 232.299 680.776 232.849 680.776C233.473 680.776 234.043 680.909 234.561 681.176C235.083 681.437 235.526 681.797 235.889 682.256C236.251 682.715 236.515 683.237 236.681 683.824C236.846 684.411 236.883 685.024 236.793 685.664H230.945C231.019 685.963 231.142 686.232 231.313 686.472C231.483 686.707 231.699 686.896 231.961 687.04C232.222 687.179 232.518 687.251 232.849 687.256C233.19 687.261 233.499 687.181 233.777 687.016C234.059 686.845 234.294 686.616 234.481 686.328L236.473 686.792C236.147 687.501 235.662 688.083 235.017 688.536C234.371 688.984 233.649 689.208 232.849 689.208ZM230.881 684.2H234.817C234.758 683.88 234.633 683.592 234.441 683.336C234.254 683.075 234.022 682.867 233.745 682.712C233.467 682.557 233.169 682.48 232.849 682.48C232.529 682.48 232.233 682.557 231.961 682.712C231.689 682.861 231.457 683.067 231.265 683.328C231.078 683.584 230.95 683.875 230.881 684.2ZM238.482 683.224H243.602V685.176H238.482V683.224ZM248.089 689.144C247.673 689.117 247.27 689.035 246.881 688.896C246.497 688.752 246.155 688.557 245.857 688.312C245.558 688.067 245.329 687.773 245.169 687.432L246.817 686.728C246.881 686.835 246.985 686.949 247.129 687.072C247.273 687.189 247.443 687.288 247.641 687.368C247.843 687.448 248.065 687.488 248.305 687.488C248.507 687.488 248.699 687.461 248.881 687.408C249.067 687.349 249.217 687.261 249.329 687.144C249.446 687.027 249.505 686.875 249.505 686.688C249.505 686.491 249.435 686.339 249.297 686.232C249.163 686.12 248.993 686.037 248.785 685.984C248.582 685.925 248.385 685.872 248.193 685.824C247.686 685.723 247.214 685.565 246.777 685.352C246.345 685.139 245.995 684.864 245.729 684.528C245.467 684.187 245.337 683.776 245.337 683.296C245.337 682.768 245.475 682.312 245.753 681.928C246.035 681.544 246.401 681.248 246.849 681.04C247.302 680.832 247.79 680.728 248.313 680.728C248.947 680.728 249.529 680.861 250.057 681.128C250.59 681.389 251.011 681.76 251.321 682.24L249.777 683.152C249.702 683.024 249.598 682.907 249.465 682.8C249.331 682.688 249.179 682.597 249.009 682.528C248.838 682.453 248.659 682.411 248.473 682.4C248.233 682.389 248.014 682.411 247.817 682.464C247.619 682.517 247.459 682.608 247.337 682.736C247.219 682.864 247.161 683.035 247.161 683.248C247.161 683.451 247.241 683.603 247.401 683.704C247.561 683.8 247.753 683.875 247.977 683.928C248.206 683.981 248.425 684.04 248.633 684.104C249.102 684.259 249.542 684.448 249.953 684.672C250.369 684.896 250.702 685.171 250.953 685.496C251.203 685.821 251.323 686.211 251.313 686.664C251.313 687.181 251.158 687.635 250.849 688.024C250.539 688.408 250.139 688.701 249.649 688.904C249.163 689.107 248.643 689.187 248.089 689.144ZM256.277 689.208C255.541 689.208 254.869 689.019 254.261 688.64C253.658 688.261 253.176 687.752 252.813 687.112C252.456 686.472 252.277 685.765 252.277 684.992C252.277 684.411 252.381 683.867 252.589 683.36C252.797 682.848 253.082 682.4 253.445 682.016C253.813 681.627 254.24 681.323 254.725 681.104C255.21 680.885 255.728 680.776 256.277 680.776C256.901 680.776 257.472 680.909 257.989 681.176C258.512 681.437 258.954 681.797 259.317 682.256C259.68 682.715 259.944 683.237 260.109 683.824C260.274 684.411 260.312 685.024 260.221 685.664H254.373C254.448 685.963 254.57 686.232 254.741 686.472C254.912 686.707 255.128 686.896 255.389 687.04C255.65 687.179 255.946 687.251 256.277 687.256C256.618 687.261 256.928 687.181 257.205 687.016C257.488 686.845 257.722 686.616 257.909 686.328L259.901 686.792C259.576 687.501 259.09 688.083 258.445 688.536C257.8 688.984 257.077 689.208 256.277 689.208ZM254.309 684.2H258.245C258.186 683.88 258.061 683.592 257.869 683.336C257.682 683.075 257.45 682.867 257.173 682.712C256.896 682.557 256.597 682.48 256.277 682.48C255.957 682.48 255.661 682.557 255.389 682.712C255.117 682.861 254.885 683.067 254.693 683.328C254.506 683.584 254.378 683.875 254.309 684.2Z" fill="#FF8B3E"/>
<path d="M72.1849 890V880.2H75.3209C75.8436 880.2 76.3149 880.328 76.7349 880.585C77.1549 880.837 77.4886 881.18 77.7359 881.614C77.9879 882.043 78.1139 882.526 78.1139 883.063C78.1139 883.604 77.9856 884.092 77.7289 884.526C77.4769 884.96 77.1386 885.303 76.7139 885.555C76.2939 885.807 75.8296 885.933 75.3209 885.933H73.1649V890H72.1849ZM73.1649 884.953H75.2439C75.5893 884.953 75.9043 884.869 76.1889 884.701C76.4783 884.528 76.7069 884.297 76.8749 884.008C77.0476 883.714 77.1339 883.383 77.1339 883.014C77.1339 882.645 77.0476 882.316 76.8749 882.027C76.7069 881.733 76.4783 881.502 76.1889 881.334C75.9043 881.161 75.5893 881.075 75.2439 881.075H73.1649V884.953ZM82.2188 890.182C81.5748 890.182 80.9868 890.016 80.4548 889.685C79.9275 889.354 79.5052 888.91 79.1878 888.355C78.8752 887.795 78.7188 887.177 78.7188 886.5C78.7188 885.987 78.8098 885.508 78.9918 885.065C79.1738 884.617 79.4235 884.225 79.7408 883.889C80.0628 883.548 80.4362 883.282 80.8608 883.091C81.2855 882.9 81.7382 882.804 82.2188 882.804C82.8628 882.804 83.4485 882.97 83.9758 883.301C84.5078 883.632 84.9302 884.078 85.2428 884.638C85.5602 885.198 85.7188 885.819 85.7188 886.5C85.7188 887.009 85.6278 887.485 85.4458 887.928C85.2638 888.371 85.0118 888.763 84.6898 889.104C84.3725 889.44 84.0015 889.704 83.5768 889.895C83.1568 890.086 82.7042 890.182 82.2188 890.182ZM82.2188 889.202C82.6948 889.202 83.1218 889.078 83.4998 888.831C83.8825 888.579 84.1835 888.248 84.4028 887.837C84.6268 887.426 84.7388 886.981 84.7388 886.5C84.7388 886.01 84.6268 885.56 84.4028 885.149C84.1788 884.734 83.8755 884.402 83.4928 884.155C83.1148 883.908 82.6902 883.784 82.2188 883.784C81.7428 883.784 81.3135 883.91 80.9308 884.162C80.5528 884.409 80.2518 884.738 80.0278 885.149C79.8085 885.56 79.6988 886.01 79.6988 886.5C79.6988 887.004 79.8132 887.461 80.0418 887.872C80.2705 888.278 80.5762 888.602 80.9588 888.845C81.3415 889.083 81.7615 889.202 82.2188 889.202ZM87.0498 890V879.5H88.0298V890H87.0498ZM89.9158 883H90.8958V890H89.9158V883ZM90.1678 882.23L90.7278 880.214H91.7078L90.8258 882.23H90.1678ZM96.3588 883.98H94.6858L94.6788 890H93.6988L93.7058 883.98H92.4388V883H93.7058L93.6988 880.802H94.6788L94.6858 883H96.3588V883.98ZM97.7533 883H98.7333V890H97.7533V883ZM98.2503 881.775C98.0916 881.775 97.9563 881.724 97.8443 881.621C97.737 881.514 97.6833 881.381 97.6833 881.222C97.6833 881.063 97.737 880.933 97.8443 880.83C97.9563 880.723 98.0916 880.669 98.2503 880.669C98.4043 880.669 98.535 880.723 98.6423 880.83C98.7543 880.933 98.8103 881.063 98.8103 881.222C98.8103 881.381 98.7566 881.514 98.6493 881.621C98.542 881.724 98.409 881.775 98.2503 881.775ZM105.549 888.243L106.424 888.719C106.107 889.162 105.703 889.517 105.213 889.783C104.728 890.049 104.2 890.182 103.631 890.182C102.987 890.182 102.399 890.016 101.867 889.685C101.34 889.354 100.917 888.91 100.6 888.355C100.287 887.795 100.131 887.177 100.131 886.5C100.131 885.987 100.222 885.508 100.404 885.065C100.586 884.617 100.836 884.225 101.153 883.889C101.475 883.548 101.848 883.282 102.273 883.091C102.698 882.9 103.15 882.804 103.631 882.804C104.2 882.804 104.728 882.937 105.213 883.203C105.703 883.469 106.107 883.826 106.424 884.274L105.549 884.743C105.306 884.435 105.015 884.199 104.674 884.036C104.333 883.868 103.986 883.784 103.631 883.784C103.16 883.784 102.733 883.91 102.35 884.162C101.967 884.409 101.664 884.738 101.44 885.149C101.221 885.56 101.111 886.01 101.111 886.5C101.111 886.99 101.223 887.44 101.447 887.851C101.676 888.262 101.981 888.591 102.364 888.838C102.747 889.081 103.169 889.202 103.631 889.202C104.014 889.202 104.373 889.113 104.709 888.936C105.045 888.759 105.325 888.528 105.549 888.243ZM113.546 883H114.526V890H113.546L113.511 888.698C113.282 889.141 112.963 889.501 112.552 889.776C112.141 890.047 111.651 890.182 111.082 890.182C110.569 890.182 110.088 890.086 109.64 889.895C109.192 889.699 108.798 889.431 108.457 889.09C108.116 888.749 107.85 888.355 107.659 887.907C107.468 887.459 107.372 886.978 107.372 886.465C107.372 885.961 107.465 885.487 107.652 885.044C107.843 884.601 108.105 884.211 108.436 883.875C108.772 883.539 109.159 883.278 109.598 883.091C110.041 882.9 110.515 882.804 111.019 882.804C111.602 882.804 112.111 882.944 112.545 883.224C112.979 883.499 113.324 883.861 113.581 884.309L113.546 883ZM111.061 889.23C111.56 889.23 111.99 889.109 112.349 888.866C112.708 888.619 112.984 888.287 113.175 887.872C113.371 887.457 113.469 886.999 113.469 886.5C113.469 885.987 113.371 885.525 113.175 885.114C112.979 884.699 112.701 884.37 112.342 884.127C111.983 883.884 111.556 883.763 111.061 883.763C110.566 883.763 110.114 883.887 109.703 884.134C109.297 884.377 108.973 884.706 108.73 885.121C108.492 885.536 108.373 885.996 108.373 886.5C108.373 887.009 108.497 887.471 108.744 887.886C108.991 888.297 109.318 888.623 109.724 888.866C110.135 889.109 110.58 889.23 111.061 889.23ZM125.451 879.5H126.431V890H125.451V888.691C125.208 889.139 124.875 889.501 124.45 889.776C124.03 890.047 123.531 890.182 122.952 890.182C122.443 890.182 121.967 890.086 121.524 889.895C121.081 889.704 120.689 889.44 120.348 889.104C120.012 888.763 119.748 888.371 119.557 887.928C119.366 887.485 119.27 887.009 119.27 886.5C119.27 885.991 119.366 885.515 119.557 885.072C119.748 884.624 120.012 884.232 120.348 883.896C120.689 883.555 121.081 883.289 121.524 883.098C121.967 882.907 122.443 882.811 122.952 882.811C123.531 882.811 124.03 882.949 124.45 883.224C124.875 883.495 125.208 883.852 125.451 884.295V879.5ZM122.959 889.23C123.458 889.23 123.888 889.109 124.247 888.866C124.606 888.619 124.882 888.287 125.073 887.872C125.269 887.457 125.367 886.999 125.367 886.5C125.367 885.987 125.269 885.525 125.073 885.114C124.877 884.699 124.599 884.37 124.24 884.127C123.881 883.884 123.454 883.763 122.959 883.763C122.464 883.763 122.014 883.887 121.608 884.134C121.202 884.377 120.878 884.706 120.635 885.121C120.392 885.536 120.271 885.996 120.271 886.5C120.271 887.009 120.395 887.471 120.642 887.886C120.889 888.297 121.216 888.623 121.622 888.866C122.033 889.109 122.478 889.23 122.959 889.23ZM131.337 890.182C130.693 890.182 130.105 890.016 129.573 889.685C129.046 889.354 128.624 888.91 128.306 888.355C127.994 887.795 127.837 887.177 127.837 886.5C127.837 885.987 127.928 885.508 128.11 885.065C128.292 884.617 128.542 884.225 128.859 883.889C129.181 883.548 129.555 883.282 129.979 883.091C130.404 882.9 130.857 882.804 131.337 882.804C131.855 882.804 132.331 882.907 132.765 883.112C133.204 883.317 133.58 883.604 133.892 883.973C134.21 884.342 134.448 884.773 134.606 885.268C134.77 885.763 134.837 886.297 134.809 886.871H128.873C128.929 887.314 129.069 887.711 129.293 888.061C129.522 888.411 129.811 888.689 130.161 888.894C130.516 889.095 130.908 889.197 131.337 889.202C131.804 889.202 132.224 889.081 132.597 888.838C132.975 888.595 133.279 888.262 133.507 887.837L134.501 888.068C134.221 888.689 133.799 889.197 133.234 889.594C132.67 889.986 132.037 890.182 131.337 890.182ZM128.845 886.08H133.822C133.79 885.646 133.657 885.249 133.423 884.89C133.195 884.526 132.898 884.237 132.534 884.022C132.17 883.803 131.771 883.693 131.337 883.693C130.903 883.693 130.507 883.8 130.147 884.015C129.788 884.225 129.494 884.512 129.265 884.876C129.037 885.235 128.897 885.637 128.845 886.08ZM139.841 890V880.2H142.977C143.499 880.2 143.971 880.328 144.391 880.585C144.811 880.837 145.144 881.18 145.392 881.614C145.644 882.043 145.77 882.526 145.77 883.063C145.77 883.604 145.641 884.092 145.385 884.526C145.133 884.96 144.794 885.303 144.37 885.555C143.95 885.807 143.485 885.933 142.977 885.933H140.821V890H139.841ZM140.821 884.953H142.9C143.245 884.953 143.56 884.869 143.845 884.701C144.134 884.528 144.363 884.297 144.531 884.008C144.703 883.714 144.79 883.383 144.79 883.014C144.79 882.645 144.703 882.316 144.531 882.027C144.363 881.733 144.134 881.502 143.845 881.334C143.56 881.161 143.245 881.075 142.9 881.075H140.821V884.953ZM147.232 890V883H148.212V883.966C148.46 883.611 148.782 883.329 149.178 883.119C149.575 882.909 150.007 882.804 150.473 882.804C150.744 882.804 151.005 882.839 151.257 882.909L150.858 883.882C150.662 883.821 150.471 883.791 150.284 883.791C149.906 883.791 149.559 883.884 149.241 884.071C148.929 884.258 148.679 884.507 148.492 884.82C148.306 885.133 148.212 885.48 148.212 885.863V890H147.232ZM152.34 883H153.32V890H152.34V883ZM152.837 881.775C152.679 881.775 152.543 881.724 152.431 881.621C152.324 881.514 152.27 881.381 152.27 881.222C152.27 881.063 152.324 880.933 152.431 880.83C152.543 880.723 152.679 880.669 152.837 880.669C152.991 880.669 153.122 880.723 153.229 880.83C153.341 880.933 153.397 881.063 153.397 881.222C153.397 881.381 153.344 881.514 153.236 881.621C153.129 881.724 152.996 881.775 152.837 881.775ZM158.492 890H157.246L154.691 882.979H155.734L157.869 888.852L160.004 882.979H161.047L158.492 890ZM167.887 883H168.867V890H167.887L167.852 888.698C167.623 889.141 167.304 889.501 166.893 889.776C166.482 890.047 165.992 890.182 165.423 890.182C164.91 890.182 164.429 890.086 163.981 889.895C163.533 889.699 163.139 889.431 162.798 889.09C162.457 888.749 162.191 888.355 162 887.907C161.809 887.459 161.713 886.978 161.713 886.465C161.713 885.961 161.806 885.487 161.993 885.044C162.184 884.601 162.446 884.211 162.777 883.875C163.113 883.539 163.5 883.278 163.939 883.091C164.382 882.9 164.856 882.804 165.36 882.804C165.943 882.804 166.452 882.944 166.886 883.224C167.32 883.499 167.665 883.861 167.922 884.309L167.887 883ZM165.402 889.23C165.901 889.23 166.331 889.109 166.69 888.866C167.049 888.619 167.325 888.287 167.516 887.872C167.712 887.457 167.81 886.999 167.81 886.5C167.81 885.987 167.712 885.525 167.516 885.114C167.32 884.699 167.042 884.37 166.683 884.127C166.324 883.884 165.897 883.763 165.402 883.763C164.907 883.763 164.455 883.887 164.044 884.134C163.638 884.377 163.314 884.706 163.071 885.121C162.833 885.536 162.714 885.996 162.714 886.5C162.714 887.009 162.838 887.471 163.085 887.886C163.332 888.297 163.659 888.623 164.065 888.866C164.476 889.109 164.921 889.23 165.402 889.23ZM175.329 888.243L176.204 888.719C175.887 889.162 175.483 889.517 174.993 889.783C174.508 890.049 173.98 890.182 173.411 890.182C172.767 890.182 172.179 890.016 171.647 889.685C171.12 889.354 170.697 888.91 170.38 888.355C170.067 887.795 169.911 887.177 169.911 886.5C169.911 885.987 170.002 885.508 170.184 885.065C170.366 884.617 170.616 884.225 170.933 883.889C171.255 883.548 171.628 883.282 172.053 883.091C172.478 882.9 172.93 882.804 173.411 882.804C173.98 882.804 174.508 882.937 174.993 883.203C175.483 883.469 175.887 883.826 176.204 884.274L175.329 884.743C175.086 884.435 174.795 884.199 174.454 884.036C174.113 883.868 173.766 883.784 173.411 883.784C172.94 883.784 172.513 883.91 172.13 884.162C171.747 884.409 171.444 884.738 171.22 885.149C171.001 885.56 170.891 886.01 170.891 886.5C170.891 886.99 171.003 887.44 171.227 887.851C171.456 888.262 171.761 888.591 172.144 888.838C172.527 889.081 172.949 889.202 173.411 889.202C173.794 889.202 174.153 889.113 174.489 888.936C174.825 888.759 175.105 888.528 175.329 888.243ZM177.545 883H178.525V890H177.545V883ZM178.042 881.775C177.883 881.775 177.748 881.724 177.636 881.621C177.528 881.514 177.475 881.381 177.475 881.222C177.475 881.063 177.528 880.933 177.636 880.83C177.748 880.723 177.883 880.669 178.042 880.669C178.196 880.669 178.326 880.723 178.434 880.83C178.546 880.933 178.602 881.063 178.602 881.222C178.602 881.381 178.548 881.514 178.441 881.621C178.333 881.724 178.2 881.775 178.042 881.775ZM186.103 879.5H187.083V890H186.103V888.691C185.861 889.139 185.527 889.501 185.102 889.776C184.682 890.047 184.183 890.182 183.604 890.182C183.096 890.182 182.62 890.086 182.176 889.895C181.733 889.704 181.341 889.44 181 889.104C180.664 888.763 180.401 888.371 180.209 887.928C180.018 887.485 179.922 887.009 179.922 886.5C179.922 885.991 180.018 885.515 180.209 885.072C180.401 884.624 180.664 884.232 181 883.896C181.341 883.555 181.733 883.289 182.176 883.098C182.62 882.907 183.096 882.811 183.604 882.811C184.183 882.811 184.682 882.949 185.102 883.224C185.527 883.495 185.861 883.852 186.103 884.295V879.5ZM183.611 889.23C184.111 889.23 184.54 889.109 184.899 888.866C185.259 888.619 185.534 888.287 185.725 887.872C185.921 887.457 186.019 886.999 186.019 886.5C186.019 885.987 185.921 885.525 185.725 885.114C185.529 884.699 185.252 884.37 184.892 884.127C184.533 883.884 184.106 883.763 183.611 883.763C183.117 883.763 182.666 883.887 182.26 884.134C181.854 884.377 181.53 884.706 181.287 885.121C181.045 885.536 180.923 885.996 180.923 886.5C180.923 887.009 181.047 887.471 181.294 887.886C181.542 888.297 181.868 888.623 182.274 888.866C182.685 889.109 183.131 889.23 183.611 889.23ZM194.664 883H195.644V890H194.664L194.629 888.698C194.4 889.141 194.08 889.501 193.67 889.776C193.259 890.047 192.769 890.182 192.2 890.182C191.686 890.182 191.206 890.086 190.758 889.895C190.31 889.699 189.915 889.431 189.575 889.09C189.234 888.749 188.968 888.355 188.777 887.907C188.585 887.459 188.49 886.978 188.49 886.465C188.49 885.961 188.583 885.487 188.77 885.044C188.961 884.601 189.222 884.211 189.554 883.875C189.89 883.539 190.277 883.278 190.716 883.091C191.159 882.9 191.633 882.804 192.137 882.804C192.72 882.804 193.229 882.944 193.663 883.224C194.097 883.499 194.442 883.861 194.699 884.309L194.664 883ZM192.179 889.23C192.678 889.23 193.107 889.109 193.467 888.866C193.826 888.619 194.101 888.287 194.293 887.872C194.489 887.457 194.587 886.999 194.587 886.5C194.587 885.987 194.489 885.525 194.293 885.114C194.097 884.699 193.819 884.37 193.46 884.127C193.1 883.884 192.673 883.763 192.179 883.763C191.684 883.763 191.231 883.887 190.821 884.134C190.415 884.377 190.09 884.706 189.848 885.121C189.61 885.536 189.491 885.996 189.491 886.5C189.491 887.009 189.614 887.471 189.862 887.886C190.109 888.297 190.436 888.623 190.842 888.866C191.252 889.109 191.698 889.23 192.179 889.23ZM202.869 879.5H203.849V890H202.869V888.691C202.626 889.139 202.292 889.501 201.868 889.776C201.448 890.047 200.948 890.182 200.37 890.182C199.861 890.182 199.385 890.086 198.942 889.895C198.498 889.704 198.106 889.44 197.766 889.104C197.43 888.763 197.166 888.371 196.975 887.928C196.783 887.485 196.688 887.009 196.688 886.5C196.688 885.991 196.783 885.515 196.975 885.072C197.166 884.624 197.43 884.232 197.766 883.896C198.106 883.555 198.498 883.289 198.942 883.098C199.385 882.907 199.861 882.811 200.37 882.811C200.948 882.811 201.448 882.949 201.868 883.224C202.292 883.495 202.626 883.852 202.869 884.295V879.5ZM200.377 889.23C200.876 889.23 201.305 889.109 201.665 888.866C202.024 888.619 202.299 888.287 202.491 887.872C202.687 887.457 202.785 886.999 202.785 886.5C202.785 885.987 202.687 885.525 202.491 885.114C202.295 884.699 202.017 884.37 201.658 884.127C201.298 883.884 200.871 883.763 200.377 883.763C199.882 883.763 199.432 883.887 199.026 884.134C198.62 884.377 198.295 884.706 198.053 885.121C197.81 885.536 197.689 885.996 197.689 886.5C197.689 887.009 197.812 887.471 198.06 887.886C198.307 888.297 198.634 888.623 199.04 888.866C199.45 889.109 199.896 889.23 200.377 889.23ZM208.755 890.182C208.111 890.182 207.523 890.016 206.991 889.685C206.463 889.354 206.041 888.91 205.724 888.355C205.411 887.795 205.255 887.177 205.255 886.5C205.255 885.987 205.346 885.508 205.528 885.065C205.71 884.617 205.959 884.225 206.277 883.889C206.599 883.548 206.972 883.282 207.397 883.091C207.821 882.9 208.274 882.804 208.755 882.804C209.273 882.804 209.749 882.907 210.183 883.112C210.621 883.317 210.997 883.604 211.31 883.973C211.627 884.342 211.865 884.773 212.024 885.268C212.187 885.763 212.255 886.297 212.227 886.871H206.291C206.347 887.314 206.487 887.711 206.711 888.061C206.939 888.411 207.229 888.689 207.579 888.894C207.933 889.095 208.325 889.197 208.755 889.202C209.221 889.202 209.641 889.081 210.015 888.838C210.393 888.595 210.696 888.262 210.925 887.837L211.919 888.068C211.639 888.689 211.216 889.197 210.652 889.594C210.087 889.986 209.455 890.182 208.755 890.182ZM206.263 886.08H211.24C211.207 885.646 211.074 885.249 210.841 884.89C210.612 884.526 210.316 884.237 209.952 884.022C209.588 883.803 209.189 883.693 208.755 883.693C208.321 883.693 207.924 883.8 207.565 884.015C207.205 884.225 206.911 884.512 206.683 884.876C206.454 885.235 206.314 885.637 206.263 886.08Z" fill="#616161"/>
<path d="M226.489 886.549C226.289 886.549 226.116 886.477 225.971 886.332C225.827 886.187 225.754 886.008 225.754 885.793C225.754 885.588 225.827 885.413 225.971 885.268C226.116 885.123 226.289 885.051 226.489 885.051C226.704 885.051 226.884 885.123 227.028 885.268C227.173 885.413 227.245 885.588 227.245 885.793C227.245 886.008 227.173 886.187 227.028 886.332C226.884 886.477 226.704 886.549 226.489 886.549Z" fill="#616161"/>
<path d="M248.553 880.2V881.18H245.193V890H244.213V881.18H240.86V880.2H248.553ZM252.145 890.182C251.501 890.182 250.913 890.016 250.381 889.685C249.854 889.354 249.431 888.91 249.114 888.355C248.801 887.795 248.645 887.177 248.645 886.5C248.645 885.987 248.736 885.508 248.918 885.065C249.1 884.617 249.35 884.225 249.667 883.889C249.989 883.548 250.362 883.282 250.787 883.091C251.212 882.9 251.664 882.804 252.145 882.804C252.663 882.804 253.139 882.907 253.573 883.112C254.012 883.317 254.387 883.604 254.7 883.973C255.017 884.342 255.255 884.773 255.414 885.268C255.577 885.763 255.645 886.297 255.617 886.871H249.681C249.737 887.314 249.877 887.711 250.101 888.061C250.33 888.411 250.619 888.689 250.969 888.894C251.324 889.095 251.716 889.197 252.145 889.202C252.612 889.202 253.032 889.081 253.405 888.838C253.783 888.595 254.086 888.262 254.315 887.837L255.309 888.068C255.029 888.689 254.607 889.197 254.042 889.594C253.477 889.986 252.845 890.182 252.145 890.182ZM249.653 886.08H254.63C254.597 885.646 254.464 885.249 254.231 884.89C254.002 884.526 253.706 884.237 253.342 884.022C252.978 883.803 252.579 883.693 252.145 883.693C251.711 883.693 251.314 883.8 250.955 884.015C250.596 884.225 250.302 884.512 250.073 884.876C249.844 885.235 249.704 885.637 249.653 886.08ZM257.017 890V883H257.997V883.966C258.244 883.611 258.566 883.329 258.963 883.119C259.36 882.909 259.791 882.804 260.258 882.804C260.529 882.804 260.79 882.839 261.042 882.909L260.643 883.882C260.447 883.821 260.256 883.791 260.069 883.791C259.691 883.791 259.343 883.884 259.026 884.071C258.713 884.258 258.464 884.507 258.277 884.82C258.09 885.133 257.997 885.48 257.997 885.863V890H257.017ZM262.153 890V883H263.133V883.966C263.385 883.611 263.707 883.329 264.099 883.119C264.491 882.909 264.92 882.804 265.387 882.804C265.914 882.804 266.397 882.935 266.836 883.196C267.274 883.453 267.617 883.796 267.865 884.225C268.112 883.796 268.453 883.453 268.887 883.196C269.321 882.935 269.801 882.804 270.329 882.804C270.856 882.804 271.337 882.932 271.771 883.189C272.205 883.446 272.55 883.791 272.807 884.225C273.063 884.659 273.192 885.14 273.192 885.667V890H272.212V885.884C272.212 885.511 272.121 885.165 271.939 884.848C271.757 884.531 271.512 884.276 271.204 884.085C270.9 883.889 270.562 883.791 270.189 883.791C269.815 883.791 269.475 883.882 269.167 884.064C268.863 884.241 268.621 884.489 268.439 884.806C268.257 885.119 268.166 885.478 268.166 885.884V890H267.186V885.884C267.186 885.478 267.095 885.119 266.913 884.806C266.731 884.489 266.486 884.241 266.178 884.064C265.87 883.882 265.529 883.791 265.156 883.791C264.787 883.791 264.449 883.889 264.141 884.085C263.833 884.276 263.588 884.531 263.406 884.848C263.224 885.165 263.133 885.511 263.133 885.884V890H262.153ZM277.737 890.182C277.093 890.182 276.505 890.016 275.973 889.685C275.446 889.354 275.024 888.91 274.706 888.355C274.394 887.795 274.237 887.177 274.237 886.5C274.237 885.987 274.328 885.508 274.51 885.065C274.692 884.617 274.942 884.225 275.259 883.889C275.581 883.548 275.955 883.282 276.379 883.091C276.804 882.9 277.257 882.804 277.737 882.804C278.381 882.804 278.967 882.97 279.494 883.301C280.026 883.632 280.449 884.078 280.761 884.638C281.079 885.198 281.237 885.819 281.237 886.5C281.237 887.009 281.146 887.485 280.964 887.928C280.782 888.371 280.53 888.763 280.208 889.104C279.891 889.44 279.52 889.704 279.095 889.895C278.675 890.086 278.223 890.182 277.737 890.182ZM277.737 889.202C278.213 889.202 278.64 889.078 279.018 888.831C279.401 888.579 279.702 888.248 279.921 887.837C280.145 887.426 280.257 886.981 280.257 886.5C280.257 886.01 280.145 885.56 279.921 885.149C279.697 884.734 279.394 884.402 279.011 884.155C278.633 883.908 278.209 883.784 277.737 883.784C277.261 883.784 276.832 883.91 276.449 884.162C276.071 884.409 275.77 884.738 275.546 885.149C275.327 885.56 275.217 886.01 275.217 886.5C275.217 887.004 275.332 887.461 275.56 887.872C275.789 888.278 276.095 888.602 276.477 888.845C276.86 889.083 277.28 889.202 277.737 889.202ZM284.799 890.133C284.417 890.124 284.043 890.054 283.679 889.923C283.315 889.792 282.998 889.615 282.727 889.391C282.457 889.167 282.263 888.913 282.146 888.628L282.993 888.264C283.068 888.446 283.206 888.614 283.406 888.768C283.612 888.917 283.845 889.039 284.106 889.132C284.368 889.221 284.627 889.265 284.883 889.265C285.168 889.265 285.434 889.218 285.681 889.125C285.929 889.032 286.129 888.899 286.283 888.726C286.442 888.549 286.521 888.341 286.521 888.103C286.521 887.846 286.437 887.646 286.269 887.501C286.101 887.352 285.889 887.235 285.632 887.151C285.376 887.062 285.112 886.978 284.841 886.899C284.347 886.764 283.91 886.614 283.532 886.451C283.154 886.288 282.858 886.08 282.643 885.828C282.433 885.571 282.328 885.242 282.328 884.841C282.328 884.416 282.447 884.05 282.685 883.742C282.928 883.429 283.243 883.189 283.63 883.021C284.022 882.848 284.44 882.762 284.883 882.762C285.453 882.762 285.971 882.886 286.437 883.133C286.909 883.38 287.249 883.709 287.459 884.12L286.668 884.589C286.584 884.398 286.451 884.232 286.269 884.092C286.087 883.952 285.88 883.842 285.646 883.763C285.418 883.684 285.184 883.642 284.946 883.637C284.648 883.632 284.37 883.677 284.113 883.77C283.857 883.859 283.649 883.992 283.49 884.169C283.336 884.346 283.259 884.563 283.259 884.82C283.259 885.077 283.336 885.273 283.49 885.408C283.644 885.539 283.852 885.646 284.113 885.73C284.379 885.809 284.678 885.903 285.009 886.01C285.434 886.145 285.833 886.299 286.206 886.472C286.58 886.645 286.881 886.859 287.109 887.116C287.338 887.373 287.45 887.697 287.445 888.089C287.445 888.509 287.319 888.875 287.067 889.188C286.815 889.501 286.489 889.741 286.087 889.909C285.686 890.072 285.257 890.147 284.799 890.133ZM298.176 879.5H299.156V890H298.176V888.691C297.934 889.139 297.6 889.501 297.175 889.776C296.755 890.047 296.256 890.182 295.677 890.182C295.169 890.182 294.693 890.086 294.249 889.895C293.806 889.704 293.414 889.44 293.073 889.104C292.737 888.763 292.474 888.371 292.282 887.928C292.091 887.485 291.995 887.009 291.995 886.5C291.995 885.991 292.091 885.515 292.282 885.072C292.474 884.624 292.737 884.232 293.073 883.896C293.414 883.555 293.806 883.289 294.249 883.098C294.693 882.907 295.169 882.811 295.677 882.811C296.256 882.811 296.755 882.949 297.175 883.224C297.6 883.495 297.934 883.852 298.176 884.295V879.5ZM295.684 889.23C296.184 889.23 296.613 889.109 296.972 888.866C297.332 888.619 297.607 888.287 297.798 887.872C297.994 887.457 298.092 886.999 298.092 886.5C298.092 885.987 297.994 885.525 297.798 885.114C297.602 884.699 297.325 884.37 296.965 884.127C296.606 883.884 296.179 883.763 295.684 883.763C295.19 883.763 294.739 883.887 294.333 884.134C293.927 884.377 293.603 884.706 293.36 885.121C293.118 885.536 292.996 885.996 292.996 886.5C292.996 887.009 293.12 887.471 293.367 887.886C293.615 888.297 293.941 888.623 294.347 888.866C294.758 889.109 295.204 889.23 295.684 889.23ZM304.063 890.182C303.419 890.182 302.831 890.016 302.299 889.685C301.771 889.354 301.349 888.91 301.032 888.355C300.719 887.795 300.563 887.177 300.563 886.5C300.563 885.987 300.654 885.508 300.836 885.065C301.018 884.617 301.267 884.225 301.585 883.889C301.907 883.548 302.28 883.282 302.705 883.091C303.129 882.9 303.582 882.804 304.063 882.804C304.581 882.804 305.057 882.907 305.491 883.112C305.929 883.317 306.305 883.604 306.618 883.973C306.935 884.342 307.173 884.773 307.332 885.268C307.495 885.763 307.563 886.297 307.535 886.871H301.599C301.655 887.314 301.795 887.711 302.019 888.061C302.247 888.411 302.537 888.689 302.887 888.894C303.241 889.095 303.633 889.197 304.063 889.202C304.529 889.202 304.949 889.081 305.323 888.838C305.701 888.595 306.004 888.262 306.233 887.837L307.227 888.068C306.947 888.689 306.524 889.197 305.96 889.594C305.395 889.986 304.763 890.182 304.063 890.182ZM301.571 886.08H306.548C306.515 885.646 306.382 885.249 306.149 884.89C305.92 884.526 305.624 884.237 305.26 884.022C304.896 883.803 304.497 883.693 304.063 883.693C303.629 883.693 303.232 883.8 302.873 884.015C302.513 884.225 302.219 884.512 301.991 884.876C301.762 885.235 301.622 885.637 301.571 886.08ZM315.989 890.182C315.467 890.182 314.96 890.1 314.47 889.937C313.985 889.774 313.56 889.54 313.196 889.237C312.832 888.934 312.576 888.572 312.426 888.152L313.343 887.809C313.446 888.098 313.633 888.348 313.903 888.558C314.179 888.763 314.498 888.922 314.862 889.034C315.231 889.146 315.607 889.202 315.989 889.202C316.437 889.202 316.855 889.127 317.242 888.978C317.63 888.829 317.942 888.621 318.18 888.355C318.418 888.084 318.537 887.767 318.537 887.403C318.537 887.034 318.414 886.731 318.166 886.493C317.919 886.255 317.599 886.068 317.207 885.933C316.82 885.793 316.414 885.686 315.989 885.611C315.322 885.494 314.722 885.336 314.19 885.135C313.663 884.934 313.245 884.652 312.937 884.288C312.629 883.919 312.475 883.434 312.475 882.832C312.475 882.267 312.639 881.777 312.965 881.362C313.292 880.947 313.721 880.625 314.253 880.396C314.79 880.167 315.369 880.053 315.989 880.053C316.498 880.053 316.995 880.132 317.48 880.291C317.966 880.45 318.393 880.681 318.761 880.984C319.135 881.287 319.403 881.658 319.566 882.097L318.635 882.433C318.533 882.139 318.344 881.889 318.068 881.684C317.798 881.474 317.48 881.315 317.116 881.208C316.752 881.096 316.377 881.04 315.989 881.04C315.546 881.035 315.131 881.11 314.743 881.264C314.361 881.413 314.05 881.623 313.812 881.894C313.574 882.16 313.455 882.473 313.455 882.832C313.455 883.252 313.565 883.576 313.784 883.805C314.008 884.029 314.312 884.197 314.694 884.309C315.077 884.421 315.509 884.521 315.989 884.61C316.615 884.717 317.196 884.885 317.732 885.114C318.269 885.338 318.701 885.639 319.027 886.017C319.354 886.39 319.517 886.852 319.517 887.403C319.517 887.963 319.354 888.453 319.027 888.873C318.701 889.288 318.269 889.61 317.732 889.839C317.2 890.068 316.619 890.182 315.989 890.182ZM324.295 890.182C323.651 890.182 323.063 890.016 322.531 889.685C322.004 889.354 321.582 888.91 321.264 888.355C320.952 887.795 320.795 887.177 320.795 886.5C320.795 885.987 320.886 885.508 321.068 885.065C321.25 884.617 321.5 884.225 321.817 883.889C322.139 883.548 322.513 883.282 322.937 883.091C323.362 882.9 323.815 882.804 324.295 882.804C324.813 882.804 325.289 882.907 325.723 883.112C326.162 883.317 326.538 883.604 326.85 883.973C327.168 884.342 327.406 884.773 327.564 885.268C327.728 885.763 327.795 886.297 327.767 886.871H321.831C321.887 887.314 322.027 887.711 322.251 888.061C322.48 888.411 322.769 888.689 323.119 888.894C323.474 889.095 323.866 889.197 324.295 889.202C324.762 889.202 325.182 889.081 325.555 888.838C325.933 888.595 326.237 888.262 326.465 887.837L327.459 888.068C327.179 888.689 326.757 889.197 326.192 889.594C325.628 889.986 324.995 890.182 324.295 890.182ZM321.803 886.08H326.78C326.748 885.646 326.615 885.249 326.381 884.89C326.153 884.526 325.856 884.237 325.492 884.022C325.128 883.803 324.729 883.693 324.295 883.693C323.861 883.693 323.465 883.8 323.105 884.015C322.746 884.225 322.452 884.512 322.223 884.876C321.995 885.235 321.855 885.637 321.803 886.08ZM329.167 890V883H330.147V883.966C330.395 883.611 330.717 883.329 331.113 883.119C331.51 882.909 331.942 882.804 332.408 882.804C332.679 882.804 332.94 882.839 333.192 882.909L332.793 883.882C332.597 883.821 332.406 883.791 332.219 883.791C331.841 883.791 331.494 883.884 331.176 884.071C330.864 884.258 330.614 884.507 330.427 884.82C330.241 885.133 330.147 885.48 330.147 885.863V890H329.167ZM337.752 890H336.506L333.951 882.979H334.994L337.129 888.852L339.264 882.979H340.307L337.752 890ZM341.667 883H342.647V890H341.667V883ZM342.164 881.775C342.005 881.775 341.87 881.724 341.758 881.621C341.651 881.514 341.597 881.381 341.597 881.222C341.597 881.063 341.651 880.933 341.758 880.83C341.87 880.723 342.005 880.669 342.164 880.669C342.318 880.669 342.449 880.723 342.556 880.83C342.668 880.933 342.724 881.063 342.724 881.222C342.724 881.381 342.67 881.514 342.563 881.621C342.456 881.724 342.323 881.775 342.164 881.775ZM349.463 888.243L350.338 888.719C350.02 889.162 349.617 889.517 349.127 889.783C348.641 890.049 348.114 890.182 347.545 890.182C346.901 890.182 346.313 890.016 345.781 889.685C345.253 889.354 344.831 888.91 344.514 888.355C344.201 887.795 344.045 887.177 344.045 886.5C344.045 885.987 344.136 885.508 344.318 885.065C344.5 884.617 344.749 884.225 345.067 883.889C345.389 883.548 345.762 883.282 346.187 883.091C346.611 882.9 347.064 882.804 347.545 882.804C348.114 882.804 348.641 882.937 349.127 883.203C349.617 883.469 350.02 883.826 350.338 884.274L349.463 884.743C349.22 884.435 348.928 884.199 348.588 884.036C348.247 883.868 347.899 883.784 347.545 883.784C347.073 883.784 346.646 883.91 346.264 884.162C345.881 884.409 345.578 884.738 345.354 885.149C345.134 885.56 345.025 886.01 345.025 886.5C345.025 886.99 345.137 887.44 345.361 887.851C345.589 888.262 345.895 888.591 346.278 888.838C346.66 889.081 347.083 889.202 347.545 889.202C347.927 889.202 348.287 889.113 348.623 888.936C348.959 888.759 349.239 888.528 349.463 888.243ZM347.559 892.569C347.265 892.648 346.985 892.611 346.719 892.457C346.453 892.303 346.28 892.079 346.201 891.785L346.81 891.624C346.842 891.75 346.915 891.846 347.027 891.911C347.143 891.976 347.267 891.993 347.398 891.96C347.528 891.923 347.626 891.846 347.692 891.729C347.762 891.617 347.778 891.496 347.741 891.365C347.708 891.234 347.633 891.136 347.517 891.071C347.405 891.01 347.281 890.994 347.146 891.022L346.481 891.113L347.342 889.615L347.888 889.93L347.594 890.441C347.771 890.488 347.927 890.579 348.063 890.714C348.203 890.849 348.298 891.013 348.35 891.204C348.429 891.503 348.392 891.785 348.238 892.051C348.084 892.317 347.857 892.49 347.559 892.569ZM354.786 890.182C354.142 890.182 353.554 890.016 353.022 889.685C352.494 889.354 352.072 888.91 351.755 888.355C351.442 887.795 351.286 887.177 351.286 886.5C351.286 885.987 351.377 885.508 351.559 885.065C351.741 884.617 351.99 884.225 352.308 883.889C352.63 883.548 353.003 883.282 353.428 883.091C353.852 882.9 354.305 882.804 354.786 882.804C355.43 882.804 356.015 882.97 356.543 883.301C357.075 883.632 357.497 884.078 357.81 884.638C358.127 885.198 358.286 885.819 358.286 886.5C358.286 887.009 358.195 887.485 358.013 887.928C357.831 888.371 357.579 888.763 357.257 889.104C356.939 889.44 356.568 889.704 356.144 889.895C355.724 890.086 355.271 890.182 354.786 890.182ZM354.786 889.202C355.262 889.202 355.689 889.078 356.067 888.831C356.449 888.579 356.75 888.248 356.97 887.837C357.194 887.426 357.306 886.981 357.306 886.5C357.306 886.01 357.194 885.56 356.97 885.149C356.746 884.734 356.442 884.402 356.06 884.155C355.682 883.908 355.257 883.784 354.786 883.784C354.31 883.784 353.88 883.91 353.498 884.162C353.12 884.409 352.819 884.738 352.595 885.149C352.375 885.56 352.266 886.01 352.266 886.5C352.266 887.004 352.38 887.461 352.609 887.872C352.837 888.278 353.143 888.602 353.526 888.845C353.908 889.083 354.328 889.202 354.786 889.202Z" fill="#616161"/>
<path fill-rule="evenodd" clip-rule="evenodd" d="M353 18H352C351.448 18 351 18.4197 351 18.9375V27.0625C351 27.5803 351.448 28 352 28H353C353.552 28 354 27.5803 354 27.0625V18.9375C354 18.4197 353.552 18 353 18ZM347 20H348C348.552 20 349 20.4298 349 20.96V27.04C349 27.5702 348.552 28 348 28H347C346.448 28 346 27.5702 346 27.04V20.96C346 20.4298 346.448 20 347 20ZM343 22H342C341.448 22 341 22.4477 341 23V27C341 27.5523 341.448 28 342 28H343C343.552 28 344 27.5523 344 27V23C344 22.4477 343.552 22 343 22ZM338 24H337C336.448 24 336 24.4477 336 25V27C336 27.5523 336.448 28 337 28H338C338.552 28 339 27.5523 339 27V25C339 24.4477 338.552 24 338 24Z" fill="black"/>
<path fill-rule="evenodd" clip-rule="evenodd" d="M366.637 19.2773C368.852 19.2774 370.984 20.1289 372.59 21.6557C372.711 21.7735 372.904 21.772 373.023 21.6523L374.179 20.4857C374.239 20.4249 374.273 20.3427 374.272 20.2571C374.272 20.1715 374.237 20.0897 374.176 20.0297C369.961 15.9901 363.311 15.9901 359.096 20.0297C359.035 20.0896 359.001 20.1715 359 20.257C358.999 20.3426 359.033 20.4249 359.093 20.4857L360.25 21.6523C360.369 21.7722 360.562 21.7737 360.683 21.6557C362.289 20.1288 364.42 19.2773 366.637 19.2773ZM366.637 23.0729C367.854 23.0728 369.028 23.5254 369.931 24.3426C370.053 24.4585 370.245 24.456 370.364 24.3369L371.519 23.1702C371.579 23.109 371.613 23.026 371.612 22.9398C371.611 22.8535 371.576 22.7712 371.514 22.7112C368.766 20.1548 364.51 20.1548 361.762 22.7112C361.699 22.7712 361.664 22.8535 361.663 22.9398C361.662 23.0261 361.696 23.1091 361.757 23.1702L362.912 24.3369C363.031 24.456 363.223 24.4585 363.345 24.3426C364.247 23.5259 365.42 23.0734 366.637 23.0729ZM368.95 25.6267C368.951 25.7132 368.917 25.7966 368.856 25.8572L366.858 27.8729C366.8 27.9321 366.72 27.9655 366.637 27.9655C366.553 27.9655 366.473 27.9321 366.415 27.8729L364.417 25.8572C364.356 25.7966 364.322 25.7131 364.323 25.6266C364.325 25.5401 364.363 25.4582 364.427 25.4002C365.703 24.3213 367.571 24.3213 368.846 25.4002C368.91 25.4583 368.948 25.5402 368.95 25.6267Z" fill="black"/>
<path opacity="0.35" d="M382.667 16.5H402.333C403.53 16.5 404.5 17.47 404.5 18.6667V26.3333C404.5 27.53 403.53 28.5 402.333 28.5H382.667C381.47 28.5 380.5 27.53 380.5 26.3333V18.6667C380.5 17.4701 381.47 16.5 382.667 16.5Z" stroke="black"/>
<path opacity="0.4" d="M405.65 21V25C406.455 24.6612 406.978 23.8731 406.978 23C406.978 22.1269 406.455 21.3388 405.65 21" fill="black"/>
<path d="M382.3 19.6663C382.3 18.93 382.897 18.333 383.633 18.333H401.167C401.903 18.333 402.5 18.93 402.5 19.6663V25.3297C402.5 26.0661 401.903 26.663 401.167 26.663H383.633C382.897 26.663 382.3 26.0661 382.3 25.3297V19.6663Z" fill="black"/>
<path d="M25.488 27L27.752 23.08C27.2133 23.1813 26.688 23.16 26.176 23.016C25.6693 22.8667 25.2133 22.624 24.808 22.288C24.4027 21.9467 24.08 21.5333 23.84 21.048C23.6 20.5627 23.48 20.0293 23.48 19.448C23.48 18.92 23.5787 18.424 23.776 17.96C23.9787 17.4907 24.256 17.08 24.608 16.728C24.96 16.3707 25.368 16.0933 25.832 15.896C26.3013 15.6933 26.8027 15.592 27.336 15.592C28.0347 15.592 28.6747 15.7653 29.256 16.112C29.8373 16.4587 30.3013 16.9253 30.648 17.512C30.9947 18.0933 31.168 18.7387 31.168 19.448C31.168 19.816 31.1227 20.152 31.032 20.456C30.9467 20.76 30.8107 21.08 30.624 21.416L27.416 27H25.488ZM27.32 21.632C27.7467 21.632 28.1253 21.5307 28.456 21.328C28.7867 21.12 29.0453 20.8507 29.232 20.52C29.424 20.184 29.52 19.824 29.52 19.44C29.52 19.024 29.4187 18.6507 29.216 18.32C29.0133 17.9893 28.744 17.728 28.408 17.536C28.0773 17.344 27.72 17.248 27.336 17.248C26.9093 17.248 26.5307 17.352 26.2 17.56C25.8693 17.768 25.608 18.04 25.416 18.376C25.224 18.7067 25.128 19.0613 25.128 19.44C25.128 19.84 25.224 20.208 25.416 20.544C25.6133 20.8747 25.8773 21.1387 26.208 21.336C26.5387 21.5333 26.9093 21.632 27.32 21.632ZM33.3526 20.752C33.1073 20.752 32.8993 20.6667 32.7286 20.496C32.5633 20.3253 32.4806 20.1173 32.4806 19.872C32.4806 19.632 32.5633 19.4267 32.7286 19.256C32.8993 19.0853 33.1073 19 33.3526 19C33.598 19 33.806 19.0853 33.9766 19.256C34.1473 19.4267 34.2326 19.632 34.2326 19.872C34.2326 20.1173 34.1473 20.3253 33.9766 20.496C33.806 20.6667 33.598 20.752 33.3526 20.752ZM33.3526 27.208C33.1073 27.208 32.8993 27.1227 32.7286 26.952C32.5633 26.7813 32.4806 26.5733 32.4806 26.328C32.4806 26.088 32.5633 25.8827 32.7286 25.712C32.8993 25.5413 33.1073 25.456 33.3526 25.456C33.598 25.456 33.806 25.5413 33.9766 25.712C34.1473 25.8827 34.2326 26.088 34.2326 26.328C34.2326 26.5733 34.1473 26.7813 33.9766 26.952C33.806 27.1227 33.598 27.208 33.3526 27.208ZM40.832 27V24.136H36.04V22.464L40.432 15.8H42.496V22.472H43.52V24.136H42.496V27H40.832ZM37.976 22.464L40.832 22.472L40.816 18.096L37.976 22.464ZM46.6541 27V17.464H45.3181L45.7741 15.8H48.3181V27H46.6541Z" fill="black"/>
</g>
<defs>
<clipPath id="clip0_14821_15585">
<rect width="430" height="932" fill="white"/>
</clipPath>
</defs>
</svg>
