<svg version="1.2" xmlns="http://www.w3.org/2000/svg" viewBox="0 0 945 870" width="945" height="870">
	<title>zoo-render</title>
	<style>
		.s0 { fill: none } 
		.s1 { fill: #fa8a45 } 
		.s2 { fill: #fdcd4d } 
		.s3 { fill: #adc468 } 
		.s4 { fill: #ffffff } 
	</style>
	<path id="Object 4" fill-rule="evenodd" class="s0" d="m-118.1-395.8h2350v1661.6h-2350z"/>
	<path id="Object 6" class="s1" d="m-0.1 5.9l944.9-6.3v318.5l-894.4-18.9z"/>
	<path id="Object 7" class="s2" d="m39.4 318.1l905.4 39.5-63.1 321.7-813.9-45.8z"/>
	<path id="Object 8" class="s3" d="m-0.1 663.8l944.9 34.7-37.9 171.9-830.8-24.8z"/>
	<path id="Object 10" fill-rule="evenodd" class="s4" d="m252.2 534.6c26.6 15.4 59.6 8.7 76.2-17.8 4.4-7.1 7.1-15.1 7.8-23.4 1.7-20.9-8.4-38.3-30.1-40.7 4.1-16.2 8.8-30.6 13.8-43.4 31.1-9 65 1 91.6 19.7 23.1 16.3 19.2 17.9 7.6 41.8-4 8.4-6.2 17.1-9.7 25.6-5.6 13.4-10.6 26.9-12.5 41.4-1 7.1-1.2 14.3-1.3 21.4-0.2 9.3-0.4 18.7-0.7 28-17.8-0.9-28.7-5.2-47 1.7-6.2 2.4-12.3 5.4-18.7 7.1-7.7 2.1-15.7 0.3-23.2 2.8l-0.2 0.1-0.3 0.2c-9.3 7.2-18 34.9-19.1 46.6-1 10.6 1.9 19.6 1.9 29.9 0.1 9.3-4.5 16.1-4.4 25.7v2.5l8.8-3.3c6.4-3 14.8-13.2 17.2-19.6 2.2-5.6 2.3-13 2.6-19 0.3-7.2 1-14.3 3.8-21 1.1-2.7 2.6-5 4.9-6.9 6.6-5.2 18.2-5 26.1-4.7 15.2 0.5 30.1 2.1 45.4 2.1 10.7 0 32.6 1.3 41.3-5.7 7.9-6.4 12.4-26.2 15.3-35.7 3.4-11.2 6.9-22.3 10.6-33.3 3-9.1 8.2-25.3 13.4-33.7 5 1.7 11.7 6.7 14 10.9 7.4 13 1.6 56.7-2.5 71.6-3.2 11.6-8.7 21.9-13.8 32.7-3.8 8.1-8.4 18.3-6.9 27.5 1.4 7.6 6.6 13 12.8 17.1 5.7 3.8 11.5 6.9 17.9 9.3 3.3 1.2 7.4 2.3 10.4 4.1 4.2 2.5 6.5 7 8.4 11.3 4.8 10.7 8.3 23.7 11.6 34.9 2.3 8.3 0.4 16.8 2.8 25 2 6.8 8.2 12.6 9.3 18.5 1.3 6.9-0.8 14.2-3.7 21.4-7.5-2.1-14.9-2.2-31.9 4.5-22.4 8.9-30 16.1-63.3 14.6-9.8-0.5-22.9-2.2-31.6-7.5-15.6-9.5-7.6-22.6-47.3-15.6-38 6.6-5.9 16.1-55.5 20.3-40 3.4-48.8 4.5-78.7-13.2 3.6-48.5-13.9-206.7 22.8-278.4q2 1.4 4.1 2.6zm48.6-57.7c7 6.2 0.4 25.3-10.8 30.2-6.4 2.8-12.7 0.7-18-3.3 7.3-4.7 15.8-7.4 25.6-7.8q1.5-9.9 3.2-19.1zm245.1 329.9q0 2.4-0.1 4.5-1-0.3-2-0.6zm37.6-13.4c-6.1-8.6-9.5-20.2-15.3-29.2-10.7-16.8-8.8-15.1-10.5-35-1.3-16.6-3.5-33.1-5-49.6-0.5-6.4-1.4-15.7 2-21.5 2.3-4 6.6-6.7 10.4-8.9 7.4-4.1 15.4-7.7 23-11.4 6-3 12.1-6 18.1-9.1-5.9 49.9-10.3 95-9.3 124.9 23.6 21.7 39.7 15.6 38 56.7-11 2.2-26.8 4-42.4 4.7-0.6-7.9-3.5-13.8-9-21.6zm-10.8 6.7c4.1 4.7 6 10 7.6 15.2q-2.8 0-5.4-0.1c-0.7-5.3-1.6-10.6-2.2-15.1zm-13.7 4.6l0.3 0.5c0.7 1.4 1.7 3.5 2.2 4.9 0.4 1.3 0.7 2.8 1 4.4l-0.8-0.1q-1.9-0.2-3.5-0.5c0.3-3.3 0.6-6.4 0.8-9.2zm16.5-347.9c-25.7-11-52.7-19.7-78-31.6-13.4-6.4-23.5-11.8-33.2-23.1l-0.4-0.6c-0.7-13.9-1.3-27.9-1.9-41.9-0.4-7-0.4-13.8-1.5-20.8-1.1-6.2-2.2-12.7-2.6-18.9v-0.1-0.1c-0.3-2.7-0.3-5.2-0.1-7.9 0.7-1.2 0.6-1.5 1.1-3q0.1-0.2 0.1-0.4c4.1 3.4 5 4.5 8.9 10.9 1.6 2.6 3.2 5.2 4.7 8 1.6 2.9 3.5 5.7 5.1 8.6 3.1 5.7 6.5 11.3 9.8 16.9 1.7 2.9 3.4 5.7 5 8.6 1.6 2.8 1.2 2.5 3.9 4.3 0.4 0.3 0.8 0.6 1.2 0.8q0.1 0.1 0.2 0.1l7.5 9.6-0.5-9c-0.3-4.7-4.3-13.9-3.6-17.5 0.7-3.5-0.5-7.2-1.9-10.4-0.3-0.8-1.2-2.4-1.9-4.1 2.5 1.9 5.3 3.7 7.3 4.9 4.2 4.3 25.3 18.4 28.9 19.3l5.1 1.4-1.7-5c-0.6-1.7-2.8-4.4-5.2-7.1l0.8 0.2-2.3-5.4c-1.9-4.5-11.7-13.4-15.6-17-3.6-3.4-7.1-6.9-10.6-10.4-4-3.9-8.8-8.9-13.4-12.1-3.8-2.8-2.9-3.8-4.2-8.4-2-7.3-5.2-14-7.4-21.1 1.7-3-0.8-10.1-1.3-12.1-3.4-13.7-6.2-27.3-9.4-41-4.1-17.6-9.5-34.2-15.6-51.2q-0.4-0.8-0.7-1.7c22.3-30.4 42.9-58.6 37.3-82.5-6.6-28-19.7-30.4-12.7-62.7 20.2 2.9 40.6 16.9 48.3 26.7 73.9-33.9 44.3-18.4 93.8-17.2 23.7 0.6 1.8-2.5 24.4-5.4 17.2 15.4 76.7 86.6 77.2 117.9 0.6 30.9-8.8 61.2-32.6 68.5-37.4 11.5-28.6-25.7-74.1 9.3-1.3 19.2 15.8 95.5 18.3 130.6 2.2 30.2-1.7 77-7.7 128.9-15.2-10.1-31.5-18.3-48.8-25.8zm-173.6-178.4l12 53.4c2.7 12.7 3.7 25.5 5.6 38.3l0.2 1.4q-2.1-0.9-4.1-1.9c-20.7-9.4-44.5-14.1-68.2-13.8 21.6-33.3 43.5-53.6 53.5-82.2 0.3 1.1 0.6 2.6 1 4.8zm147.1 315.7l-21.1 19.1 10.4-25.5zm-45.3 60.5l0.9 13.1c-5.6-3.8-4.7-8.2-0.9-13.1z"/>
	<path id="Object 12" class="s4" d="m458.2 304.1c6.3 5.1 6.6 4.6 12.2 13.8 1.8 3 3.3 5.4 4.8 8.1 1.9 3.5 3.3 5.4 5 8.6 3.3 6.1 6.2 10.8 9.8 16.8 1.6 2.9 3.2 5.4 5 8.7 1.6 2.6 0.7 1.7 3 3.3 2.2 1.6 0.4-0.1 1.9 1.4l2.1 2.7c-0.3-5.3-4.5-13.6-3.5-18.3 1.2-6.3-5.6-14.3-5.5-18.6 0.1-2.6-0.9-0.7 1-2.7 1.6 3.3 9.5 8.2 12.5 10 1.2 1.9 24.1 17.9 27.8 18.9-1-2.8-9.6-11.5-12.1-13.6l5.5 1.5c-1.6-3.8-11.6-13-14.9-16.1-6.4-5.9-18.3-18.4-23.7-22.3-4.4-3.1-3.5-3.5-5.3-9.9-2.2-8.1-5.7-15-7.9-22.8 0-2.4 2.8 3.8-0.8-10.5-9.8-39.2-9.1-48-25-91.8-5.6-15.5-15.4-34.6-24.5-42.4-7.8-6.8-7.4-7.8-17.2-15.9-6.4-5.3-12-10.5-18.6-15.2-5.8-4.1-16.2-7.9-20-13.1-9.3-12.5-17.6-24.8-38.3-28.6-5.3-1-9.5-0.8-14.7-2.1-16.6-4.2-44 11.5-42.4 23.7 0.4 2.9 1.5 3.4 1.7 6.5 0.3 5.9-2.7 23.3 8.7 33.1 5.8 5 17.5 8.2 26.8 7.4-2.1-3.2-3.2-1.5-5.4-5 0.7-0.5 6.4-3.1 7.6-3.1 2.5 0 6.4 1.8 8 3.1-1.7 9.8-22.4 8.4-15.2 36.3 4.9 18.8 15.8 37.7 26.5 53.2 8.6 12.4 24.6 24 33.2 33 2.4 2.5 4.8 3.5 6.9 6.4-7.6 4.6-5.4-1.5-11.8 7.3-1.2 1.6-1.7 1.1-1.9 3.6 9.6 4.4 21.3-4.8 36.4 5.5 7.3 5 6.8 3 8.8 12.9l12 53.4c2.8 13.2 3.7 25.4 5.6 38.4l0.4 2.5c9.7 4.6 19.8 9.9 28.2 16.1 3.9 2.9 7 5.6 9.9 8.8-0.7-14.2-1.2-27.6-1.6-37.3-0.4-7.5-0.3-13.2-1.5-20.5-0.9-5.6-2.2-13.4-2.6-19.2-0.4-3.2-0.2-6.2-0.1-9.1 1.5-2.2 0.5-0.8 1.3-3.1 1.5-4.6-0.9-1.4 1.9-3.8z"/>
	<path id="Object 13" fill-rule="evenodd" class="s4" d="m539 785.6c-1.2-6.3-7.2-11.3-9.3-18.7-2.4-8.2-0.3-16.1-2.9-25-18.4-64-16.6-39-48.9-60.5-28.1-18.6-0.8-41.9 8.6-75.4 3.8-13.7 10.3-58.8 2.3-73-2.2-4-9.7-10.4-16.2-12.1-7.5 11.1-20 52.6-24.9 68.6-12.2 39.7-9.5 40.2-55 40.2-43-0.1-69.8-9.3-78 10.5-5.9 14.2-2.5 30.1-6.4 40-2.4 6.3-10.6 16-16.2 18.7l-6.5 2.4c0-10.8 4.5-14.8 4.5-25.7-0.1-10.4-3-18.3-2-29.8 1.3-14 10.7-39.4 18.5-45.3 7.3-2.5 14.5-0.5 23.1-2.8 6.5-1.8 12.8-4.9 18.8-7.2 18.6-7 28.3-2.2 48.1-1.5 1.7-46-1.9-52.8 14.4-91.9 3.6-8.7 5.3-16.5 9.7-25.5 12.3-25.4 15.4-27.4-8.2-44-31.8-22.3-74.1-32.6-110-13-40.8 22.3-50.5 75.8-32.2 90.1 30.4 23.9 50.7-39.4 19.3-30.7-7.4 2.1-7 7.5-10.1 13.8-5.4-8.6-8.1-36.7 26-33.4 19.7 1.9 30.8 17.2 29 38.8-2.9 35.1-43.2 62-81.5 39.9-26.2-15.2-38.3-62.7-24.4-101.3 26.4-73 122-89.9 186.3-60.5 63.7 29 32.8 32.3 81.9 55.5 48.1 22.7 107.9 34.8 156.7 81l15.9 18.8c15.5-0.9 23.3-16.7 40.5-1 11.6 10.6 17.9 9.4 24.8 29.2 6.7 19.2 0.3 25.6-4.4 42.4-4.7 17.1-13 23.6-30.9 16 6 37.6 30.5 72.3 44.8 100.9 12.8 25.4 12.8 36.3 32.9 39.9 21.3 3.7 36.5 13.9 41.5 34.1-12.3-1.8-9.7-4.3-16.6-9.3-4.3-3.1-12-4.2-17.5-5.8l-1.2 5.7c-0.1 0.3-0.3 1-0.6 1.4-7.5-1.7-7-3.7-13.9-5-5.9-1.2-10.9 0.1-16.7-2.1-8.6-3.2-7.8-14.9-15.3-23.7-12.1-14-24-22.7-36.7-39.3-11-14.3-46.7-90.2-50.5-103.7-9.9 2.7-22.4 10.2-31.3 14.5-10.7 5.2-21 10.6-31 15.5-47.6 23.3-37.8 13.5-31.2 93.1 1.8 22 0.1 19.1 10.7 35.8 4.7 7.4 10.4 22.3 15.3 29.2 5.2 7.3 10.1 14.3 8.6 30l-1 3.8c-0.1 0.2-0.3 0.8-0.6 1.2-8.3-7.8-5.4-23.1-18.5-33.7 0.8 13.4 7.3 36.6 1.5 48-8.3-4.2-5.8-24.8-8.9-34.1-0.2-0.4-2.1-4.7-2.3-5.2l-2.3-3.9c-0.2-0.4-0.5-0.9-0.8-1.4-1.1 13.2-2.7 38.8-10.9 46.5-4.8-5.6-2.4-13.3-0.9-20.4 2.2-11 1.6-13.5 1.6-24.5-0.4 0.4-0.8 0.6-1 1.4-0.1 0.9-0.7 1.1-0.9 1.5l-13.9 25.1-4 2.8-0.2-5.6c3.8-10.9 14-26.8 11.4-40.3zm-15.6-166l28.5-25.7-14.4-8.7zm-18.3 30.8c-6.6 7.2-10.3 14.8 1.5 20.6z"/>
</svg>